<svg width="162" height="146" viewBox="0 0 162 146" fill="none" xmlns="http://www.w3.org/2000/svg">
<rect opacity="0.2" width="161.361" height="146" rx="30" fill="#384D70"/>
<path opacity="0.5" d="M64.6704 63.9761C64.6704 59.6385 66.2362 56.0944 69.3677 53.3438C72.5203 50.5719 76.5934 49.186 81.5869 49.186C86.39 49.186 90.3044 50.4344 93.3301 52.9312C96.3558 55.4067 97.8687 58.57 97.8687 62.4209C97.8687 63.7962 97.6571 65.1292 97.2339 66.4199C96.8319 67.6895 96.1759 68.9696 95.2661 70.2603C94.3774 71.5298 93.4782 72.6829 92.5684 73.7197C91.6585 74.7354 90.4736 75.9731 89.0137 77.4331L77.8418 88.1924V88.3828H98.5034V96H65.21V89.5571L82.4756 72.9263C84.8031 70.5988 86.39 68.7262 87.2363 67.3086C88.1038 65.891 88.5376 64.3887 88.5376 62.8018C88.5376 61.0667 87.8499 59.6068 86.4746 58.4219C85.0993 57.237 83.3643 56.6445 81.2695 56.6445C79.0479 56.6445 77.207 57.3428 75.7471 58.7393C74.2871 60.1146 73.5571 61.8602 73.5571 63.9761V64.1348H64.6704V63.9761Z" fill="white"/>
</svg>
