<svg width="127" height="146" viewBox="0 0 127 146" fill="none" xmlns="http://www.w3.org/2000/svg">
<rect opacity="0.2" width="126.854" height="146" rx="30" fill="#384D70"/>
<path opacity="0.5" d="M63.0962 76.0049V69.0859H68.6504C70.8298 69.0859 72.5965 68.4935 73.9507 67.3086C75.3049 66.1237 75.9819 64.5897 75.9819 62.7065C75.9819 60.8234 75.3366 59.3317 74.0459 58.2314C72.7552 57.11 70.9355 56.5493 68.5869 56.5493C66.3652 56.5493 64.5667 57.1523 63.1914 58.3584C61.8161 59.5645 61.0649 61.1725 60.938 63.1826H52.1147C52.284 58.9297 53.9027 55.5337 56.9707 52.9946C60.0387 50.4556 64.0483 49.186 68.9995 49.186C73.7814 49.186 77.6429 50.3075 80.584 52.5503C83.5462 54.7931 85.0273 57.7448 85.0273 61.4053C85.0273 64.1771 84.1598 66.5257 82.4248 68.4512C80.6898 70.3766 78.4046 71.5933 75.5693 72.1011V72.2915C79.0182 72.5877 81.7477 73.7197 83.7578 75.6875C85.7891 77.6341 86.8047 80.1838 86.8047 83.3364C86.8047 87.4201 85.1226 90.7209 81.7583 93.2388C78.4152 95.7567 74.0882 97.0156 68.7773 97.0156C63.6357 97.0156 59.478 95.7249 56.3042 93.1436C53.1515 90.5622 51.4588 87.145 51.2261 82.8921H60.3984C60.5465 84.8387 61.3717 86.3939 62.874 87.5576C64.3975 88.7214 66.4076 89.3032 68.9043 89.3032C71.2952 89.3032 73.2524 88.6896 74.7759 87.4624C76.2993 86.2352 77.061 84.6589 77.061 82.7334C77.061 80.6387 76.3205 78.9989 74.8394 77.814C73.3582 76.6079 71.327 76.0049 68.7456 76.0049H63.0962Z" fill="white"/>
</svg>
