<svg width="138" height="146" viewBox="0 0 138 146" fill="none" xmlns="http://www.w3.org/2000/svg">
<rect opacity="0.1" width="138" height="146" rx="30" fill="white"/>
<path opacity="0.7" d="M69.8521 97.0156C64.9432 97.0156 60.8807 95.7038 57.6646 93.0801C54.4696 90.4352 52.798 87.0392 52.6499 82.8921H61.5049C61.7799 84.8387 62.6898 86.415 64.2344 87.6211C65.8001 88.8271 67.6938 89.4302 69.9155 89.4302C72.4123 89.4302 74.4435 88.6473 76.0093 87.0815C77.5962 85.4946 78.3896 83.4528 78.3896 80.9561C78.3896 78.417 77.6068 76.3434 76.041 74.7354C74.4753 73.1273 72.4546 72.3232 69.979 72.3232C68.244 72.3232 66.6676 72.7041 65.25 73.4658C63.8535 74.2064 62.7533 75.2326 61.9492 76.5444H53.3799L55.6333 50.2017H84.769V57.8188H63.1553L62.1079 70.3555H62.2983C63.2505 68.7897 64.6047 67.5625 66.3608 66.6738C68.1382 65.7852 70.18 65.3408 72.4863 65.3408C76.8662 65.3408 80.4632 66.7902 83.2773 69.689C86.1126 72.5666 87.5303 76.2376 87.5303 80.7021C87.5303 85.5475 85.8905 89.4831 82.6108 92.5088C79.3524 95.5133 75.0994 97.0156 69.8521 97.0156Z" fill="white"/>
</svg>
