<svg width="1917" height="925" viewBox="0 0 1917 925" fill="none" xmlns="http://www.w3.org/2000/svg">
<rect x="-3" width="1920" height="925" fill="url(#paint0_linear_683_3047)"/>
<mask id="mask0_683_3047" style="mask-type:alpha" maskUnits="userSpaceOnUse" x="-2" y="0" width="1919" height="925">
<rect x="-1.0752" width="1918.08" height="925" fill="url(#paint1_linear_683_3047)"/>
</mask>
<g mask="url(#mask0_683_3047)">
<g filter="url(#filter0_f_683_3047)">
<rect x="909.012" y="106" width="693.304" height="694" rx="346.652" fill="url(#paint2_radial_683_3047)" fill-opacity="0.5"/>
</g>
<g filter="url(#filter1_f_683_3047)">
<rect x="219.703" y="179" width="534.464" height="535" rx="267.232" fill="url(#paint3_radial_683_3047)" fill-opacity="0.5"/>
</g>
<g filter="url(#filter2_f_683_3047)">
<rect x="1443.48" y="202" width="295.703" height="296" rx="147.852" fill="url(#paint4_radial_683_3047)"/>
</g>
<g filter="url(#filter3_f_683_3047)">
<rect x="1640.28" y="644" width="122.877" height="123" rx="61.4383" fill="url(#paint5_radial_683_3047)"/>
</g>
<g opacity="0.4" filter="url(#filter4_f_683_3047)">
<rect x="-32.0439" y="-87" width="355.643" height="356" rx="177.822" fill="url(#paint6_radial_683_3047)"/>
</g>
<g opacity="0.4" filter="url(#filter5_f_683_3047)">
<rect x="-76" y="438" width="422.576" height="423" rx="211.288" fill="url(#paint7_radial_683_3047)"/>
</g>
<path opacity="0.3" d="M1013.2 323.215C1013.2 323.215 1022.39 359.355 991.928 399.705C991.928 399.705 1041.69 398.315 1065.62 428.215C1065.62 428.215 1057.64 384.755 1091.83 351.726C1091.83 351.726 1045.11 359.374 1013.2 323.215Z" fill="#E11D2E"/>
<path opacity="0.23" d="M1817.11 403.943C1817.11 403.943 1781.06 434.747 1716.07 429.967C1716.07 429.967 1747.92 476.998 1728.02 518.197C1728.02 518.197 1773.23 484.106 1832.06 496.924C1832.06 496.924 1794.85 456.62 1817.11 403.943Z" fill="#0096F2"/>
<path opacity="0.23" d="M1616.57 190.826C1616.57 190.826 1622.72 214.71 1602.32 241.376C1602.32 241.376 1635.66 240.457 1651.69 260.217C1651.69 260.217 1646.34 231.495 1669.25 209.667C1669.25 209.667 1637.95 214.722 1616.57 190.826Z" fill="#FF850B"/>
<g opacity="0.4" filter="url(#filter6_f_683_3047)">
<path d="M1518.03 177.13C1518.03 177.13 1554.97 322.466 1432.49 484.733C1432.49 484.733 1632.59 479.14 1728.83 599.383C1728.83 599.383 1696.75 424.609 1834.23 291.783C1834.23 291.783 1646.34 322.543 1518.03 177.13Z" fill="#2424EB"/>
</g>
</g>
<defs>
<filter id="filter0_f_683_3047" x="809.012" y="6" width="893.304" height="894" filterUnits="userSpaceOnUse" color-interpolation-filters="sRGB">
<feFlood flood-opacity="0" result="BackgroundImageFix"/>
<feBlend mode="normal" in="SourceGraphic" in2="BackgroundImageFix" result="shape"/>
<feGaussianBlur stdDeviation="50" result="effect1_foregroundBlur_683_3047"/>
</filter>
<filter id="filter1_f_683_3047" x="119.703" y="79" width="734.464" height="735" filterUnits="userSpaceOnUse" color-interpolation-filters="sRGB">
<feFlood flood-opacity="0" result="BackgroundImageFix"/>
<feBlend mode="normal" in="SourceGraphic" in2="BackgroundImageFix" result="shape"/>
<feGaussianBlur stdDeviation="50" result="effect1_foregroundBlur_683_3047"/>
</filter>
<filter id="filter2_f_683_3047" x="1343.48" y="102" width="495.703" height="496" filterUnits="userSpaceOnUse" color-interpolation-filters="sRGB">
<feFlood flood-opacity="0" result="BackgroundImageFix"/>
<feBlend mode="normal" in="SourceGraphic" in2="BackgroundImageFix" result="shape"/>
<feGaussianBlur stdDeviation="50" result="effect1_foregroundBlur_683_3047"/>
</filter>
<filter id="filter3_f_683_3047" x="1540.28" y="544" width="322.876" height="323" filterUnits="userSpaceOnUse" color-interpolation-filters="sRGB">
<feFlood flood-opacity="0" result="BackgroundImageFix"/>
<feBlend mode="normal" in="SourceGraphic" in2="BackgroundImageFix" result="shape"/>
<feGaussianBlur stdDeviation="50" result="effect1_foregroundBlur_683_3047"/>
</filter>
<filter id="filter4_f_683_3047" x="-132.044" y="-187" width="555.643" height="556" filterUnits="userSpaceOnUse" color-interpolation-filters="sRGB">
<feFlood flood-opacity="0" result="BackgroundImageFix"/>
<feBlend mode="normal" in="SourceGraphic" in2="BackgroundImageFix" result="shape"/>
<feGaussianBlur stdDeviation="50" result="effect1_foregroundBlur_683_3047"/>
</filter>
<filter id="filter5_f_683_3047" x="-176" y="338" width="622.576" height="623" filterUnits="userSpaceOnUse" color-interpolation-filters="sRGB">
<feFlood flood-opacity="0" result="BackgroundImageFix"/>
<feBlend mode="normal" in="SourceGraphic" in2="BackgroundImageFix" result="shape"/>
<feGaussianBlur stdDeviation="50" result="effect1_foregroundBlur_683_3047"/>
</filter>
<filter id="filter6_f_683_3047" x="1332.49" y="77.1289" width="601.745" height="622.254" filterUnits="userSpaceOnUse" color-interpolation-filters="sRGB">
<feFlood flood-opacity="0" result="BackgroundImageFix"/>
<feBlend mode="normal" in="SourceGraphic" in2="BackgroundImageFix" result="shape"/>
<feGaussianBlur stdDeviation="50" result="effect1_foregroundBlur_683_3047"/>
</filter>
<linearGradient id="paint0_linear_683_3047" x1="1875" y1="38.9288" x2="-29.763" y2="678.273" gradientUnits="userSpaceOnUse">
<stop stop-color="#162758"/>
<stop offset="1" stop-color="#0A142A"/>
</linearGradient>
<linearGradient id="paint1_linear_683_3047" x1="1875.04" y1="38.9288" x2="-28.1975" y2="677.121" gradientUnits="userSpaceOnUse">
<stop stop-color="#162758"/>
<stop offset="1" stop-color="#0A142A"/>
</linearGradient>
<radialGradient id="paint2_radial_683_3047" cx="0" cy="0" r="1" gradientUnits="userSpaceOnUse" gradientTransform="translate(1255.66 453) rotate(80.7463) scale(236.072 235.939)">
<stop stop-color="#E11D2E"/>
<stop offset="1" stop-color="#FF5160" stop-opacity="0.31"/>
</radialGradient>
<radialGradient id="paint3_radial_683_3047" cx="0" cy="0" r="1" gradientUnits="userSpaceOnUse" gradientTransform="translate(486.935 446.5) rotate(80.7463) scale(181.987 181.884)">
<stop stop-color="#12125C"/>
<stop offset="1" stop-color="#272751" stop-opacity="0.61"/>
</radialGradient>
<radialGradient id="paint4_radial_683_3047" cx="0" cy="0" r="1" gradientUnits="userSpaceOnUse" gradientTransform="translate(1591.33 350) rotate(77.6357) scale(105.874 105.819)">
<stop stop-color="#E11D2E"/>
<stop offset="1" stop-color="#FF5160" stop-opacity="0.58"/>
</radialGradient>
<radialGradient id="paint5_radial_683_3047" cx="0" cy="0" r="1" gradientUnits="userSpaceOnUse" gradientTransform="translate(1701.72 705.5) rotate(77.6357) scale(43.9951 43.972)">
<stop stop-color="#E11D2E"/>
<stop offset="1" stop-color="#FF5160" stop-opacity="0.58"/>
</radialGradient>
<radialGradient id="paint6_radial_683_3047" cx="0" cy="0" r="1" gradientUnits="userSpaceOnUse" gradientTransform="translate(145.778 91) rotate(77.6357) scale(127.335 127.269)">
<stop stop-color="#E11D2E"/>
<stop offset="1" stop-color="#FF5160" stop-opacity="0.58"/>
</radialGradient>
<radialGradient id="paint7_radial_683_3047" cx="0" cy="0" r="1" gradientUnits="userSpaceOnUse" gradientTransform="translate(135.288 649.5) rotate(77.6357) scale(151.3 151.221)">
<stop stop-color="#E11D2E"/>
<stop offset="1" stop-color="#FF5160" stop-opacity="0.58"/>
</radialGradient>
</defs>
</svg>
