<svg width="259" height="251" viewBox="0 0 259 251" fill="none" xmlns="http://www.w3.org/2000/svg">
<g opacity="0.1">
<path d="M206.3 67.1153C206.3 67.1153 208.157 69.6133 207.392 73.646C207.392 73.646 210.815 72.019 213.491 73.5868C213.491 73.5868 211.472 70.4891 212.744 66.9054C212.744 66.9054 209.743 68.9207 206.3 67.1153Z" fill="white"/>
</g>
<path d="M49.2303 187.012C49.2303 187.012 51.8703 190.562 50.7821 196.293C50.7821 196.293 55.6481 193.981 59.4511 196.209C59.4511 196.209 56.5807 191.807 58.3888 186.713C58.3888 186.713 54.1235 189.577 49.2303 187.012Z" fill="white"/>
<path d="M214.54 114.227C214.54 114.227 216.398 116.725 215.632 120.757C215.632 120.757 219.056 119.13 221.732 120.698C221.732 120.698 219.712 117.601 220.984 114.017C220.984 114.017 217.983 116.032 214.54 114.227Z" fill="white"/>
<g opacity="0.300003">
<g opacity="0.300003">
<path opacity="0.300003" d="M244.759 168.696C246.023 171.583 210.894 189.758 166.296 209.29C121.697 228.822 84.518 242.316 83.2536 239.429C81.9892 236.542 117.118 218.367 161.717 198.835C206.315 179.303 243.495 165.809 244.759 168.696Z" fill="#000072"/>
</g>
</g>
<path d="M229.113 167.758C227.55 172.91 223.772 177.078 218.863 179.228L108.546 227.543C103.637 229.693 98.0116 229.643 93.1651 227.297C90.4869 226 88.167 224.265 86.2523 222.289C86.249 222.29 86.249 222.29 86.2475 222.287C80.2321 216.088 78.1599 207.516 81.3249 202.721C86.6365 194.662 94.931 198.034 94.931 198.034C94.907 196.257 95.1946 194.581 95.6659 193.046C97.435 187.252 101.797 183.431 101.797 183.431C92.067 168.706 91.8912 151.581 91.8912 151.581C91.8912 151.581 112.091 156.495 138.167 145.075C164.243 133.655 174.329 115.476 174.329 115.476C174.329 115.476 186.796 127.219 191.02 144.355C191.02 144.355 200.252 143.373 206.409 149.212C206.409 149.212 209.555 140.829 219.079 142.39C226.559 143.614 232.687 155.983 229.113 167.758Z" fill="#B11313"/>
<g opacity="0.300003">
<g opacity="0.300003">
<path opacity="0.300003" d="M105.763 210.793C102.413 200.362 95.1065 198.428 95.1065 198.428C95.0824 196.65 95.37 194.974 95.8414 193.44C108.692 199.904 105.763 210.793 105.763 210.793Z" fill="#000072"/>
</g>
</g>
<g opacity="0.300003">
<g opacity="0.300003">
<path opacity="0.300003" d="M208.479 165.81C203.085 156.274 206.619 149.593 206.619 149.593C205.329 148.37 203.902 147.444 202.454 146.75C198.491 160.578 208.479 165.81 208.479 165.81Z" fill="#000072"/>
</g>
</g>
<g opacity="0.300003">
<g opacity="0.300003">
<path opacity="0.300003" d="M212.997 173.816C212.125 173.963 211.286 174.249 210.52 174.691C209.429 175.32 207.543 176.381 204.746 177.867C200.535 180.103 195.286 178.467 193.064 174.202C192.109 172.369 191.747 170.78 191.65 170.282C192.66 175.685 192.54 181.123 192.345 184.162C185.965 187.282 177.83 191.11 167.679 195.633C158.438 176.028 161.715 152.415 161.715 152.415C150.396 174.214 127.615 167.349 127.615 167.349C148.229 182.979 155.03 200.146 155.03 200.146L157.358 200.167C146.221 204.988 137.228 208.648 130.177 211.389C127.811 209.472 123.732 205.873 120.447 201.466C120.759 201.892 121.744 203.328 122.452 205.4C123.974 209.86 121.552 214.687 117.144 216.233C114.153 217.282 112.093 217.949 110.89 218.325C110.047 218.588 109.267 219.011 108.567 219.552C97.3961 228.202 86.7682 222.864 86.4227 222.684C88.3374 224.661 90.6574 226.396 93.3355 227.693C98.1821 230.038 103.807 230.088 108.716 227.938L163.888 203.775L219.06 179.612C223.969 177.462 227.747 173.294 229.31 168.142C230.173 165.294 230.47 162.412 230.316 159.665C230.214 160.04 226.93 171.472 212.997 173.816Z" fill="#000072"/>
</g>
</g>
<g opacity="0.300003">
<g opacity="0.300003">
<path opacity="0.300003" d="M120.457 201.465C120.394 201.379 120.357 201.332 120.357 201.332C120.39 201.377 120.424 201.421 120.457 201.465Z" fill="#000072"/>
</g>
</g>
<g opacity="0.300003">
<g opacity="0.300003">
<path opacity="0.300003" d="M191.65 170.285C191.64 170.231 191.631 170.176 191.621 170.122C191.621 170.122 191.63 170.18 191.65 170.285Z" fill="#000072"/>
</g>
</g>
<path d="M163.366 202.631L218.538 178.468C223.166 176.441 226.651 172.544 228.099 167.776C229.968 161.617 229.141 154.584 225.939 149.422C224.064 146.4 221.559 144.432 219.068 144.023C210.643 142.641 207.872 149.755 207.758 150.058C207.611 150.449 207.28 150.741 206.872 150.833C206.466 150.926 206.039 150.808 205.734 150.519C200.063 145.139 191.426 145.991 191.34 146C190.717 146.067 190.138 145.658 189.987 145.045C186.632 131.426 177.828 121.165 174.743 117.891C171.795 122.441 161.112 136.873 138.853 146.622C116.593 156.371 98.7415 154.436 93.3979 153.517C93.7128 158.004 95.2838 171.433 103.018 183.134C103.366 183.661 103.274 184.363 102.803 184.776C102.738 184.833 96.2547 190.634 96.3622 198.42C96.3679 198.839 96.1651 199.233 95.8215 199.469C95.4783 199.705 95.0386 199.752 94.651 199.594C94.3531 199.475 87.2134 196.73 82.5464 203.814C81.1574 205.922 80.9054 209.097 81.8552 212.524C83.4774 218.378 88.0849 223.756 93.8797 226.559C98.3654 228.728 103.592 228.809 108.221 226.782L163.366 202.631ZM219.548 180.774L109.231 229.089C103.937 231.407 97.9517 231.31 92.809 228.823C86.3791 225.714 81.2596 219.721 79.4483 213.185C78.2867 208.994 78.6462 205.169 80.4607 202.415C84.7792 195.862 90.9873 196.188 93.9206 196.799C94.4621 190.316 98.5997 185.441 100.368 183.632C91.1021 168.986 90.8283 152.679 90.8212 151.978C90.8171 151.592 90.99 151.226 91.2898 150.987C91.59 150.747 91.9832 150.661 92.3569 150.752C92.5542 150.799 112.498 155.416 137.842 144.316C163.187 133.216 173.318 115.428 173.418 115.25C173.605 114.914 173.936 114.684 174.314 114.626C174.694 114.568 175.079 114.689 175.36 114.954C175.87 115.434 187.669 126.693 192.15 143.435C194.679 143.362 201.068 143.628 206.199 147.626C207.739 145.055 211.708 140.271 219.454 141.542C222.708 142.075 225.763 144.405 228.056 148.101C231.632 153.864 232.564 161.691 230.489 168.525C228.829 173.991 224.842 178.456 219.548 180.774Z" fill="#000072"/>
<path d="M95.3624 197.198C95.5256 197.23 95.6049 197.252 95.7194 197.278C95.8282 197.304 95.9199 197.333 96.0212 197.361C96.2227 197.417 96.4041 197.49 96.5936 197.557C96.7855 197.62 96.9586 197.707 97.14 197.784C97.322 197.861 97.4982 197.945 97.6689 198.037C98.3656 198.389 99.0085 198.814 99.6183 199.278C100.84 200.204 101.873 201.327 102.772 202.519C103.665 203.72 104.373 205.027 104.96 206.367C105.256 207.035 105.474 207.735 105.718 208.415C105.908 209.117 106.087 209.818 106.232 210.522C106.26 210.656 106.174 210.787 106.041 210.814C105.94 210.835 105.84 210.79 105.786 210.708L105.776 210.693C105.381 210.095 105.031 209.487 104.67 208.892L104.094 208.022C103.898 207.737 103.738 207.433 103.522 207.163C103.101 206.62 102.748 206.038 102.296 205.532C102.081 205.272 101.883 205 101.663 204.748L100.988 204.009C100.08 203.042 99.1038 202.164 98.0619 201.414C97.7974 201.234 97.539 201.041 97.2668 200.88L96.864 200.626L96.4515 200.399C96.1815 200.235 95.8975 200.112 95.6234 199.978C95.4859 199.918 95.3454 199.848 95.2118 199.799C95.1464 199.773 95.0741 199.739 95.0139 199.718C94.9596 199.697 94.8715 199.666 94.8635 199.659L94.398 199.267C93.898 198.846 93.829 198.1 94.244 197.599C94.5251 197.26 94.958 197.122 95.3624 197.198Z" fill="#000072"/>
<path d="M207.638 150.27C207.637 150.28 207.601 150.366 207.579 150.42C207.554 150.479 207.53 150.555 207.505 150.621C207.45 150.752 207.406 150.903 207.357 151.045C207.27 151.337 207.168 151.629 207.105 151.939L206.992 152.396L206.905 152.864C206.839 153.173 206.806 153.494 206.758 153.81C206.603 155.085 206.586 156.398 206.681 157.721L206.767 158.718C206.803 159.051 206.869 159.381 206.914 159.715C206.979 160.39 207.167 161.044 207.282 161.722C207.333 162.064 207.449 162.388 207.525 162.725L207.773 163.738C207.966 164.407 208.176 165.076 208.347 165.772L208.351 165.789C208.384 165.922 208.304 166.056 208.171 166.089C208.071 166.113 207.97 166.072 207.912 165.992C207.493 165.407 207.099 164.801 206.712 164.185C206.378 163.545 206.012 162.91 205.721 162.239C205.134 160.899 204.654 159.493 204.377 158.021C204.11 156.552 203.986 155.031 204.133 153.506C204.206 152.743 204.329 151.982 204.543 151.232C204.592 151.044 204.649 150.857 204.716 150.672C204.782 150.486 204.836 150.3 204.919 150.116C204.999 149.931 205.068 149.749 205.164 149.562C205.212 149.469 205.253 149.382 205.308 149.284C205.366 149.182 205.403 149.109 205.491 148.968C205.834 148.415 206.56 148.25 207.112 148.599C207.485 148.835 207.684 149.247 207.666 149.66L207.638 150.27Z" fill="#000072"/>
<path d="M103.052 183.19L103.548 184.071L104.116 185.051C104.311 185.384 104.52 185.712 104.712 186.069C104.907 186.423 105.094 186.797 105.256 187.218L105.257 187.219C105.283 187.286 105.25 187.36 105.184 187.385C105.161 187.394 105.136 187.396 105.113 187.391C104.673 187.299 104.264 187.152 103.883 186.963C103.498 186.779 103.147 186.548 102.797 186.306C102.451 186.06 102.117 185.793 101.8 185.499C101.645 185.349 101.487 185.198 101.342 185.03C101.268 184.949 101.195 184.862 101.125 184.772C101.049 184.675 100.994 184.603 100.902 184.458C100.527 183.872 100.693 183.095 101.273 182.721C101.853 182.348 102.627 182.521 103.002 183.107C103.014 183.125 103.026 183.144 103.036 183.163L103.052 183.19Z" fill="#000072"/>
<path d="M192.413 144.382C192.457 144.548 192.473 144.636 192.493 144.758C192.511 144.871 192.525 144.983 192.535 145.093C192.56 145.314 192.564 145.532 192.569 145.748C192.57 146.18 192.54 146.606 192.486 147.028C192.427 147.448 192.359 147.863 192.232 148.272C192.113 148.679 191.944 149.08 191.713 149.465C191.676 149.526 191.598 149.545 191.538 149.508C191.516 149.495 191.5 149.476 191.489 149.455L191.488 149.453C191.289 149.048 191.142 148.657 191.014 148.274C190.882 147.891 190.782 147.515 190.669 147.146L190.334 146.064L190.024 145.102L190.015 145.076C189.802 144.414 190.161 143.707 190.818 143.496C191.474 143.286 192.18 143.652 192.393 144.314C192.4 144.335 192.407 144.36 192.413 144.382Z" fill="#000072"/>
<path d="M113.604 192.194C113.604 192.194 106.579 190.392 101.977 183.827C101.977 183.827 98.2948 183.61 98.0335 188.675C98.0335 188.675 105.986 200.303 120.355 201.333C120.355 201.333 115.809 195.544 113.604 192.194Z" fill="#0096F2"/>
<path d="M99.3161 188.309C100.635 190.038 107.045 197.768 117.52 199.704C116.093 197.836 114.149 195.241 112.823 193.27C111.148 192.742 105.525 190.636 101.392 185.142C100.684 185.316 99.5582 185.968 99.3161 188.309ZM120.861 202.484C120.681 202.563 120.481 202.6 120.276 202.585C105.474 201.524 97.3454 189.876 97.0067 189.381C96.8498 189.152 96.7725 188.877 96.7869 188.6C96.9502 185.436 98.3272 183.957 99.4539 183.273C100.7 182.515 101.909 182.562 102.043 182.57C102.425 182.593 102.777 182.79 102.998 183.105C107.259 189.185 113.843 190.958 113.909 190.975C114.209 191.054 114.474 191.242 114.646 191.504C116.796 194.77 121.29 200.498 121.335 200.556C121.642 200.947 121.692 201.482 121.463 201.921C121.33 202.178 121.115 202.373 120.861 202.484Z" fill="#000072"/>
<path d="M189.491 158.959C189.491 158.959 192.93 152.573 191.225 144.739C191.225 144.739 193.563 141.886 197.463 145.128C197.463 145.128 200.616 158.858 191.629 170.117C191.629 170.117 190.458 162.851 189.491 158.959Z" fill="#0096F2"/>
<path d="M190.81 159.115C191.36 161.426 191.948 164.614 192.354 166.931C198.033 157.919 196.7 147.967 196.323 145.823C195.181 144.967 194.141 144.665 193.23 144.928C192.974 145.001 192.758 145.111 192.591 145.219C193.819 151.975 191.558 157.526 190.81 159.115ZM192.131 171.271C191.878 171.382 191.588 171.407 191.309 171.332C190.831 171.202 190.472 170.802 190.393 170.311C190.381 170.239 189.219 163.052 188.276 159.256C188.2 158.952 188.24 158.631 188.388 158.357C188.42 158.296 191.581 152.256 190.002 145.001C189.92 144.625 190.014 144.232 190.257 143.937C190.341 143.833 191.126 142.911 192.529 142.51C193.795 142.146 195.817 142.137 198.252 144.162C198.466 144.339 198.615 144.583 198.677 144.853C198.812 145.438 201.86 159.31 192.603 170.909C192.474 171.069 192.312 171.192 192.131 171.271Z" fill="#000072"/>
<path d="M116.468 155.832C116.468 155.832 120.893 160.59 123.918 169.035L132.88 171.882C132.88 171.882 130.234 161.238 123.751 154.274L116.468 155.832Z" fill="#0096F2"/>
<path d="M124.874 168.024L131.002 169.972C129.918 166.68 127.46 160.372 123.312 155.655L118.731 156.635C120.273 158.677 122.836 162.556 124.874 168.024ZM133.382 173.036C133.11 173.155 132.8 173.175 132.507 173.082L123.546 170.234C123.172 170.115 122.873 169.826 122.74 169.455C119.849 161.385 115.597 156.733 115.554 156.687C115.247 156.355 115.139 155.883 115.272 155.452C115.406 155.021 115.76 154.698 116.198 154.603L123.48 153.045C123.909 152.953 124.356 153.095 124.657 153.419C131.288 160.541 133.977 171.138 134.089 171.586C134.198 172.027 134.064 172.492 133.736 172.802C133.63 172.901 133.51 172.98 133.382 173.036Z" fill="#000072"/>
<path d="M160.82 136.406C160.82 136.406 161.316 142.885 165.472 150.835L161.488 159.352C161.488 159.352 155.459 150.189 154.737 140.702L160.82 136.406Z" fill="#0096F2"/>
<path d="M156.051 141.317C156.706 147.575 159.674 153.654 161.358 156.679L164.083 150.853C161.446 145.647 160.334 141.133 159.878 138.615L156.051 141.317ZM161.997 160.505C161.868 160.561 161.729 160.596 161.585 160.606C161.134 160.636 160.701 160.42 160.452 160.041C160.198 159.655 154.233 150.492 153.496 140.789C153.462 140.348 153.661 139.924 154.019 139.671L160.102 135.375C160.469 135.114 160.948 135.076 161.355 135.271C161.762 135.466 162.035 135.865 162.07 136.316C162.078 136.416 162.623 142.681 166.581 150.255C166.764 150.605 166.774 151.02 166.607 151.376L162.623 159.893C162.493 160.171 162.269 160.386 161.997 160.505Z" fill="#000072"/>
<path d="M155.86 203C157.766 211.783 150.098 219.542 141.407 217.453C134.606 215.821 125.122 209.428 113.159 191.542C112.015 189.827 110.844 188.005 109.652 186.073L110.934 182.998L119.428 162.603C119.428 162.603 143.687 178.795 152.837 195.344L152.838 195.347C154.259 197.909 155.314 200.48 155.86 203Z" fill="#B11313"/>
<g opacity="0.300003">
<g opacity="0.300003">
<path opacity="0.300003" d="M155.859 203.002C157.765 211.785 150.098 219.544 141.407 217.455C134.605 215.823 125.122 209.43 113.159 191.544C106.984 190.716 101.972 183.828 101.972 183.828C95.4365 174.63 93.778 164.24 93.778 164.24C98.7106 176.759 106.129 180.513 108.954 181.524C109.741 181.805 110.427 182.313 110.925 182.988C110.928 182.992 110.931 182.996 110.933 183C121.485 197.377 135.971 214.178 145.258 211.768C154.223 209.439 153.011 196.847 152.838 195.349C154.258 197.911 155.313 200.481 155.859 203.002Z" fill="#000072"/>
</g>
</g>
<path d="M120.214 160.977C122.681 162.077 124.891 163.542 127.008 165.127C128.063 165.924 129.078 166.771 130.09 167.622C131.103 168.473 132.107 169.334 133.1 170.208C137.076 173.701 140.911 177.374 144.49 181.321C148.067 185.263 151.41 189.491 154.043 194.263C155.35 196.649 156.476 199.183 157.171 201.908C157.354 202.572 157.515 203.3 157.594 204.034C157.694 204.765 157.707 205.506 157.692 206.245C157.634 207.723 157.338 209.192 156.823 210.576C155.766 213.333 153.824 215.73 151.326 217.279C150.088 218.071 148.703 218.623 147.274 218.966C145.839 219.292 144.351 219.373 142.893 219.224C142.172 219.133 141.432 219.01 140.754 218.815L139.739 218.524C139.399 218.432 139.08 218.291 138.749 218.176C138.424 218.051 138.089 217.944 137.772 217.802L136.825 217.373C136.182 217.104 135.593 216.75 134.982 216.431C132.577 215.091 130.404 213.441 128.361 211.683C126.301 209.935 124.458 207.986 122.641 206.026C120.875 204.023 119.168 201.975 117.572 199.851C116.776 198.787 115.963 197.736 115.214 196.641C114.46 195.55 113.663 194.487 112.968 193.359C111.543 191.124 110.302 188.769 109.428 186.212C109.378 186.068 109.455 185.911 109.598 185.862C109.698 185.828 109.804 185.856 109.876 185.924L109.882 185.93C110.859 186.868 111.725 187.868 112.545 188.895C113.36 189.924 114.182 190.942 114.935 192.008C115.678 193.08 116.455 194.124 117.218 195.179C117.971 196.243 118.784 197.257 119.578 198.285C121.173 200.337 122.866 202.3 124.605 204.211C126.389 206.072 128.193 207.919 130.166 209.537C132.122 211.173 134.187 212.66 136.372 213.857C136.924 214.139 137.463 214.46 138.033 214.69L138.877 215.066C139.158 215.19 139.449 215.277 139.735 215.385C140.023 215.482 140.306 215.607 140.598 215.682L141.471 215.924C142.051 216.088 142.605 216.168 143.179 216.24C144.32 216.345 145.468 216.273 146.574 216.013C147.673 215.736 148.741 215.307 149.695 214.682C151.626 213.469 153.115 211.582 153.922 209.45C154.321 208.382 154.553 207.25 154.602 206.106C154.611 205.533 154.608 204.957 154.528 204.385C154.469 203.812 154.347 203.253 154.182 202.65C153.584 200.276 152.573 197.958 151.362 195.736C150.146 193.511 148.725 191.374 147.193 189.309C145.663 187.241 144.011 185.25 142.294 183.312C138.855 179.436 135.131 175.791 131.257 172.313C130.289 171.442 129.309 170.584 128.321 169.735C127.335 168.884 126.328 168.059 125.351 167.195C123.39 165.476 121.473 163.696 119.702 161.702L119.696 161.696C119.528 161.507 119.544 161.219 119.73 161.052C119.866 160.93 120.057 160.907 120.214 160.977Z" fill="#000072"/>
<path d="M122.751 204.728C122.443 204.863 122.081 204.873 121.748 204.725C121.116 204.445 120.825 203.704 121.099 203.069C121.349 202.487 127.412 188.742 142.421 180.773C143.027 180.448 143.787 180.686 144.112 181.301C144.437 181.915 144.207 182.676 143.599 182.999C129.386 190.545 123.45 203.949 123.392 204.083C123.262 204.384 123.028 204.606 122.751 204.728Z" fill="#000072"/>
<path d="M168.773 197.346C173.936 204.703 184.837 204.329 189.196 196.525C192.608 190.42 194.341 179.115 189.308 158.194C188.824 156.19 188.279 154.093 187.667 151.907L184.538 150.764L163.788 143.177C163.788 143.177 159.238 171.986 165.196 189.933L165.197 189.936C166.117 192.717 167.291 195.236 168.773 197.346Z" fill="#B11313"/>
<g opacity="0.300003">
<g opacity="0.300003">
<path opacity="0.300003" d="M168.779 197.342C173.942 204.699 184.843 204.325 189.201 196.521C192.614 190.416 194.347 179.111 189.314 158.19C192.892 153.09 191.23 144.736 191.23 144.736C188.901 133.695 182.389 125.431 182.389 125.431C188.246 137.545 185.973 145.543 184.801 148.304C184.474 149.074 184.382 149.922 184.541 150.746C184.542 150.751 184.543 150.756 184.544 150.76C187.954 168.265 190.479 190.304 182.41 195.495C174.62 200.505 166.187 191.075 165.203 189.932C166.123 192.713 167.296 195.232 168.779 197.342Z" fill="#000072"/>
</g>
</g>
<path d="M162.949 142.761C163.213 145.415 163.221 148.031 163.154 150.637C163.127 151.941 163.05 153.241 163.007 154.543C162.961 155.845 162.928 157.147 162.911 158.449C162.84 163.655 162.994 168.864 163.511 174.019C163.771 176.595 164.113 179.16 164.596 181.687C165.074 184.213 165.681 186.707 166.492 189.109C167.304 191.506 168.322 193.821 169.661 195.87C169.992 196.4 170.321 196.869 170.702 197.301C171.068 197.747 171.489 198.14 171.916 198.522C172.791 199.262 173.78 199.859 174.836 200.29C176.949 201.143 179.346 201.328 181.548 200.731C182.653 200.454 183.693 199.96 184.642 199.34C185.583 198.704 186.414 197.909 187.111 196.999C187.447 196.529 187.764 196.067 188.037 195.529L188.451 194.724C188.594 194.458 188.694 194.166 188.818 193.888C188.932 193.605 189.065 193.332 189.165 193.04L189.462 192.166C189.679 191.591 189.808 190.977 189.976 190.38C190.578 187.962 190.885 185.436 191.009 182.89C191.158 180.342 191.023 177.763 190.865 175.191C190.641 172.617 190.346 170.041 189.919 167.478C189.702 166.196 189.508 164.912 189.236 163.637C188.979 162.361 188.739 161.082 188.454 159.808C188.181 158.533 187.991 157.238 187.787 155.941C187.588 154.642 187.441 153.328 187.414 151.974L187.414 151.965C187.411 151.813 187.531 151.688 187.683 151.686C187.788 151.684 187.881 151.743 187.929 151.831C189.215 154.207 190.105 156.716 190.781 159.279C191.139 160.555 191.38 161.861 191.67 163.155C191.967 164.448 192.187 165.759 192.43 167.065C192.909 169.679 193.256 172.322 193.531 174.978C193.739 177.642 193.922 180.319 193.81 183.018C193.717 185.712 193.456 188.428 192.809 191.104C192.63 191.769 192.49 192.442 192.252 193.097L191.925 194.085C191.814 194.413 191.666 194.732 191.538 195.056C191.398 195.377 191.285 195.707 191.122 196.02L190.647 196.963C190.331 197.594 189.92 198.221 189.498 198.812C188.618 199.984 187.55 201.024 186.337 201.858C185.116 202.675 183.771 203.318 182.35 203.691C179.517 204.477 176.438 204.278 173.695 203.186C172.329 202.625 171.048 201.847 169.923 200.888C169.37 200.397 168.834 199.885 168.365 199.316C167.879 198.76 167.453 198.148 167.089 197.564C165.558 195.204 164.459 192.659 163.591 190.08C161.87 184.909 161.029 179.585 160.559 174.283C160.084 168.976 159.986 163.667 160.114 158.376C160.145 157.053 160.193 155.731 160.255 154.41C160.316 153.09 160.382 151.769 160.511 150.453C160.782 147.822 161.204 145.205 162.068 142.646C162.148 142.408 162.405 142.282 162.642 142.364C162.816 142.424 162.931 142.58 162.948 142.752L162.949 142.761Z" fill="#000072"/>
<path d="M192.501 174.181C192.223 174.303 191.901 174.323 191.591 174.215C191.453 174.166 177.576 169.44 162.393 174.768C161.743 174.996 161.028 174.649 160.797 173.994C160.566 173.338 160.905 172.618 161.556 172.393C177.59 166.766 191.804 171.631 192.401 171.841C193.054 172.071 193.402 172.788 193.178 173.443C193.06 173.788 192.808 174.046 192.501 174.181Z" fill="#000072"/>
<path d="M136.747 141.743C166.639 128.651 172.737 110.278 172.737 110.278C172.737 110.278 173.732 111.195 174.681 112.701C176.251 115.195 176.301 118.365 174.871 120.924C171.729 126.549 162.728 138.587 139.753 148.649C116.778 158.711 101.827 157.163 95.5621 155.658C92.7121 154.973 90.4156 152.787 89.6478 149.942C89.1841 148.223 89.1853 146.871 89.1853 146.871C89.1853 146.871 106.824 154.848 136.716 141.756" fill="#751313"/>
<g opacity="0.300003">
<g opacity="0.300003">
<path opacity="0.300003" d="M174.305 112.131C174.653 113.973 174.357 115.917 173.418 117.597C170.276 123.222 161.275 135.261 138.3 145.322C115.325 155.384 100.374 153.836 94.109 152.331C92.2376 151.882 90.6082 150.782 89.4902 149.276C89.5367 149.49 89.5898 149.712 89.6517 149.942C90.4195 152.787 92.716 154.973 95.5659 155.658C101.831 157.163 116.782 158.711 139.757 148.649C162.732 138.587 171.733 126.549 174.875 120.924C176.304 118.365 176.255 115.195 174.684 112.701C174.558 112.5 174.43 112.31 174.305 112.131Z" fill="#000072"/>
</g>
</g>
<path d="M140.26 149.8C117.316 159.849 102.231 158.548 95.2813 156.878C91.949 156.078 89.3291 153.542 88.444 150.262C87.9418 148.402 87.9373 146.922 87.9374 146.86C87.9378 146.434 88.1516 146.039 88.5059 145.81C88.8592 145.58 89.3066 145.548 89.693 145.723C89.863 145.799 107.261 153.281 136.213 140.601L137.223 142.908C112.496 153.737 96.0981 150.43 90.6507 148.731C90.7044 149.009 90.7715 149.307 90.8553 149.618C91.499 152.003 93.4116 153.848 95.8468 154.433C102.493 156.03 116.97 157.252 139.25 147.494C161.53 137.736 170.449 126.268 173.783 120.3C175.004 118.114 174.945 115.457 173.628 113.367C173.457 113.094 173.283 112.843 173.115 112.615C170.67 117.771 161.981 132.065 137.254 142.894L136.244 140.588C165.294 127.865 171.494 110.049 171.554 109.871C171.687 109.469 172.015 109.163 172.423 109.058C172.832 108.953 173.267 109.064 173.58 109.352C173.625 109.394 174.71 110.401 175.737 112.031C177.548 114.906 177.634 118.551 175.963 121.543C172.478 127.783 163.204 139.752 140.26 149.8Z" fill="#000072"/>
<g opacity="0.3">
<path d="M8.27037 94.3204C8.27037 94.3204 10.128 96.8184 9.3623 100.851C9.3623 100.851 12.7861 99.2241 15.4621 100.792C15.4621 100.792 13.4423 97.6943 14.7146 94.1106C14.7146 94.1106 11.7134 96.1258 8.27037 94.3204Z" fill="white"/>
</g>
<path d="M93.4803 156.608L130.45 190.868" stroke="#000072" stroke-miterlimit="10"/>
<path d="M176.293 170.793L176.575 120.219" stroke="#000072" stroke-miterlimit="10"/>
<path fill-rule="evenodd" clip-rule="evenodd" d="M141.45 156.203C141.487 156.308 141.465 156.426 141.468 156.545C141.471 156.659 141.481 156.779 141.491 156.896C141.518 157.201 141.55 157.499 141.708 157.84C142.03 157.747 142.4 157.549 142.657 157.39C142.836 157.392 142.978 157.454 143.149 157.468C143.067 157.351 143.181 157.272 143.272 157.188C143.249 157.265 143.192 157.335 143.263 157.429C143.338 157.431 143.315 157.35 143.362 157.318C143.457 157.343 143.545 157.301 143.595 157.216C143.651 157.201 143.661 157.261 143.721 157.24C143.77 157.131 143.618 157.102 143.561 157.062C143.679 157.055 143.807 157.031 143.845 157.152C143.936 157.057 144.022 156.885 144.099 156.759C144.403 156.675 144.777 156.534 145.104 156.364C144.84 155.792 144.443 155.437 144.049 155.076C144.102 155.047 144.123 155.097 144.147 155.112C144.485 155.327 144.819 155.596 145.13 155.9C145.176 155.945 145.244 156.002 145.3 156.063C145.349 156.117 145.441 156.207 145.446 156.248C145.457 156.336 145.282 156.443 145.274 156.526C145.118 156.483 144.801 156.654 144.485 156.781C144.396 156.817 144.27 156.852 144.22 156.886C144.111 156.962 144.111 157.106 144.078 157.197C144.251 157.131 144.335 156.959 144.481 156.885C144.574 156.837 144.735 156.826 144.867 156.795C145.25 156.704 145.669 156.586 146.022 156.515C145.707 155.745 145.146 155.234 144.538 154.884C145.075 155.079 145.515 155.389 145.922 155.802C145.992 155.873 146.056 155.943 146.116 156.022C146.201 156.133 146.269 156.285 146.402 156.337C146.325 156.473 146.219 156.602 146.135 156.736C145.737 156.745 144.997 156.83 144.464 157.107C144.336 157.173 144.24 157.269 144.17 157.371C144.358 157.344 144.476 157.297 144.699 157.196C144.755 157.17 144.828 157.119 144.874 157.108C144.925 157.095 145.031 157.13 145.12 157.147C145.636 157.247 146.079 157.292 146.645 157.303C146.822 157.307 146.935 157.339 147.064 157.176C147.485 158.063 147.43 158.878 147.272 159.67C147.254 159.762 147.259 159.858 147.199 159.95C147.29 159.293 147.265 158.569 146.949 157.847C146.915 157.772 146.895 157.668 146.845 157.611C146.774 157.529 146.514 157.523 146.354 157.498C145.9 157.428 145.548 157.393 145.063 157.353C144.967 157.345 144.878 157.317 144.807 157.329C144.733 157.342 144.626 157.384 144.547 157.409C144.449 157.44 144.358 157.476 144.278 157.504C144.479 157.55 144.781 157.584 145.04 157.6C145.089 157.607 145.115 157.556 145.159 157.536C145.672 158.57 146.011 159.654 145.918 160.613C145.895 160.842 145.861 161.073 145.739 161.29C146.006 160.304 145.501 159.033 144.899 157.989C144.991 157.86 144.91 157.821 144.759 157.779C144.593 157.733 144.313 157.683 144.149 157.696C144.161 157.75 144.207 157.787 144.253 157.82C144.299 157.853 144.375 157.866 144.403 157.901C144.461 157.977 144.492 158.185 144.51 158.295C144.568 158.659 144.546 159.096 144.49 159.409C144.431 159.429 144.44 159.34 144.394 159.339C144.334 159.368 144.402 159.421 144.381 159.457C144.094 159.318 143.771 159.02 143.535 158.722C143.45 158.615 143.337 158.491 143.318 158.376C143.303 158.285 143.399 158.154 143.343 158.06C143.226 158.135 143.147 158.273 143.079 158.391C143.011 158.508 142.942 158.633 142.908 158.748C142.934 158.786 142.996 158.767 143.028 158.797C143.424 159.947 143.974 161.195 144.898 161.647C144.831 161.669 144.776 161.626 144.733 161.606C143.892 161.229 143.317 160.332 142.817 159.363C142.707 159.149 142.598 158.94 142.545 158.704C142.536 158.653 142.637 158.69 142.664 158.64C142.832 158.433 142.971 158.22 143.124 158.009C142.953 158.107 142.756 158.186 142.614 158.301C142.491 158.4 142.383 158.573 142.284 158.705C141.98 159.108 141.663 159.54 141.436 159.946C141.737 160.821 142.315 161.38 142.914 161.827C142.14 161.385 141.368 160.854 140.98 159.84C141.219 159.881 141.416 159.559 141.532 159.418C141.856 159.026 142.181 158.561 142.402 158.191C142.645 158.112 142.91 157.974 143.09 157.855C142.754 157.748 142.179 158.128 141.841 158.368C141.615 158.53 141.415 158.707 141.301 158.853C141.13 158.85 140.981 158.809 140.817 158.794C140.84 158.583 140.737 158.291 140.727 158.066C140.703 157.516 140.803 156.976 140.981 156.442C141.004 156.519 140.958 156.613 140.945 156.695C140.846 157.288 140.899 157.947 141.183 158.622C141.479 158.434 141.831 158.207 142.176 157.973C142.288 157.897 142.395 157.796 142.49 157.757C142.644 157.694 142.835 157.739 143.007 157.666C142.927 157.595 142.822 157.565 142.71 157.548C142.436 157.694 142.105 157.797 141.866 157.94C141.842 157.954 141.813 157.979 141.783 158.01C141.785 158.007 141.718 158.084 141.731 158.078C141.673 158.103 141.474 158.027 141.403 158.041C141.281 157.401 141.374 156.804 141.45 156.203Z" fill="#000072"/>
<path fill-rule="evenodd" clip-rule="evenodd" d="M140.261 149.801L147.424 166.156L140.261 149.801Z" fill="#000072"/>
<path d="M140.261 149.801L147.424 166.156" stroke="#000072" stroke-miterlimit="10"/>
<path d="M135.15 151.906C135.15 151.906 141.909 164.914 141.643 167.857" stroke="#000072" stroke-miterlimit="10"/>
<path d="M131.032 153.403C131.032 153.403 135.756 158.722 136.52 168.367" stroke="#000072" stroke-miterlimit="10"/>
<path d="M144.879 147.779C144.879 147.779 149.147 160.059 152.265 163.511" stroke="#000072" stroke-miterlimit="10"/>
<path d="M149.472 145.327C149.472 145.327 152.497 158.032 156.887 159.447" stroke="#000072" stroke-miterlimit="10"/>
<path d="M127.9 157.58C127.9 157.58 129.06 154.769 132.542 155.547C132.542 155.547 133.075 153.028 136.315 154.209C136.315 154.209 136.515 151.275 141.112 151.794C141.112 151.794 141.785 149.12 145.435 149.9C145.435 149.9 146.646 146.728 150.123 147.716C150.123 147.716 151.306 144.216 154.256 145.587" stroke="#000072" stroke-miterlimit="10"/>
<path d="M142.181 154.984C142.086 154.964 141.994 154.947 141.903 154.932C138.699 154.411 137.677 157.01 137.677 157.01C134.975 155.881 134.106 158.573 134.106 158.573C129.742 156.445 129.672 160.516 129.672 160.516" stroke="#000072" stroke-miterlimit="10"/>
<path d="M142.125 155.05C142.125 155.05 143.595 152.212 146.796 153.005C146.796 153.005 148.125 149.706 151.205 151.195C151.205 151.195 153.201 147.523 155.336 149.33" stroke="#000072" stroke-miterlimit="10"/>
<path d="M132.15 166.176C132.15 166.176 132.653 162.296 136.057 164.776C136.057 164.776 138.479 160.818 140.708 163.888C140.708 163.888 142.947 161.142 146.033 162.696C146.033 162.696 147.066 159.236 150.386 160.076C150.386 160.076 150.35 155.492 154.453 157.244C154.453 157.244 154.768 153.27 157.495 154.264" stroke="#000072" stroke-miterlimit="10"/>
<path d="M132.769 168.095C132.769 168.095 134.097 164.579 136.378 166.926C136.378 166.926 139.152 163.827 141.365 166.247C141.365 166.247 144.116 162.783 146.935 165.162C146.935 165.162 148.171 162.22 151.318 162.473C151.318 162.473 152.103 157.894 155.732 158.805C155.732 158.805 156.204 154.637 158.264 156.2" stroke="#000072" stroke-miterlimit="10"/>
<path d="M123.392 204.084C123.392 204.084 129.102 188.102 143.06 183.291L150.284 191.445C150.284 191.445 153.146 206.994 130.185 211.389L123.392 204.084Z" fill="#000072"/>
<path d="M123.392 204.084C123.392 204.084 129.102 188.102 143.06 183.291L150.284 191.445C150.284 191.445 153.146 206.994 130.185 211.389L123.392 204.084Z" stroke="#000072" stroke-miterlimit="10"/>
<path d="M164.599 187.955L161.839 173.108L178.625 171.167L189.654 172.356L191.354 176.237L192.356 184.159C192.356 184.159 179.696 195.568 164.599 187.955Z" fill="#000072"/>
<path d="M164.599 187.955L161.839 173.108L178.625 171.167L189.654 172.356L191.354 176.237L192.356 184.159C192.356 184.159 179.696 195.568 164.599 187.955Z" stroke="#000072" stroke-miterlimit="10"/>
<path d="M81.8539 202.811L106.298 227.624" stroke="#000072" stroke-miterlimit="10"/>
<path d="M80.5414 207.87C80.5414 207.87 88.5517 220.803 102.409 229.06" stroke="#000072" stroke-miterlimit="10"/>
<path d="M85.9728 199.64C85.9728 199.64 101.546 210.984 109.905 226.331" stroke="#000072" stroke-miterlimit="10"/>
<path d="M92.186 198.285C92.186 198.285 102.336 206.776 113.677 224.392" stroke="#000072" stroke-miterlimit="10"/>
<path d="M82.1562 214.836C82.1562 214.836 80.8419 211.774 83.5108 212.015C83.5108 212.015 81.9733 206.327 86.9728 208.176C86.9728 208.176 84.7325 202.699 91.0683 203.796C91.0683 203.796 90.7277 199.206 95.2154 201.445C95.2154 201.445 96.3184 199.992 98.0612 201.415" stroke="#000072" stroke-miterlimit="10"/>
<path d="M81.7031 209.584C81.7031 209.584 80.7284 205.306 84.3037 205.299C84.3037 205.299 83.477 201.794 87.9089 201.139C87.9089 201.139 87.562 198.761 93.4481 199.416" stroke="#000072" stroke-miterlimit="10"/>
<path d="M83.2812 216.277C83.2812 216.277 82.1073 213.146 85.333 214.27C85.333 214.27 83.7362 208.657 89.2379 210.315C89.2379 210.315 87.074 205.082 93.0204 205.971C93.0204 205.971 93.4678 202.324 97.5627 203.537C97.5627 203.537 97.4366 201.796 99.5887 202.65" stroke="#000072" stroke-miterlimit="10"/>
<path d="M84.4316 218.902C84.4316 218.902 84.0743 215.553 87.7395 216.991C87.7395 216.991 87.1946 211.506 91.9525 213.296C91.9525 213.296 90.488 206.297 96.5063 208.908C96.5063 208.908 95.3091 204.444 99.9184 206.116C99.9184 206.116 99.0396 203.438 101.658 204.75" stroke="#000072" stroke-miterlimit="10"/>
<path d="M86.1953 220.777C86.1953 220.777 86.0003 217.975 89.2857 218.609C89.2857 218.609 90.3546 213.583 94.0722 215.219C94.0722 215.219 94.9715 209.919 98.9201 211.919C98.9201 211.919 98.5697 207.469 102.399 208.996C102.399 208.996 102.751 207.126 104.09 208.024" stroke="#000072" stroke-miterlimit="10"/>
<path d="M88.3594 223.229C88.3594 223.229 88.7288 219.921 91.3694 220.643C91.3694 220.643 91.7609 216.887 96.5823 217.762C96.5823 217.762 96.5709 212.914 101.564 214.392C101.564 214.392 101.365 210.349 105.05 212.48C105.05 212.48 103.586 209.114 105.914 210.033" stroke="#000072" stroke-miterlimit="10"/>
<path d="M90.9355 226.066L90.5647 225.22C90.5647 225.22 90.2344 221.685 93.5633 222.627C93.5633 222.627 94.8101 218.599 98.4705 219.683C98.4705 219.683 99.6351 214.825 103.408 216.639C103.408 216.639 103.516 212.791 107.142 214.989" stroke="#000072" stroke-miterlimit="10"/>
<path d="M93.293 226.268C93.293 226.268 92.6682 224.583 95.3581 224.129C95.3581 224.129 97.0865 221.005 100.481 221.725C100.481 221.725 100.875 217.665 105.051 218.783C105.051 218.783 106.08 215.303 108.488 216.814" stroke="#000072" stroke-miterlimit="10"/>
<path d="M95.5391 227.729C95.5391 227.729 95.8461 225.881 98.0059 226.15C98.0059 226.15 99.2768 222.998 102.485 223.753C102.485 223.753 103.04 220.448 106.676 221.059C106.676 221.059 107.442 217.932 110.017 218.944" stroke="#000072" stroke-miterlimit="10"/>
<path d="M98.0332 228.371C98.0332 228.371 97.6607 226.721 99.9051 227.472C99.9051 227.472 101.25 225.433 104.186 225.677C104.186 225.677 106.058 222.905 108.253 223.48C108.253 223.48 109.669 220.945 111.749 221.862" stroke="#000072" stroke-miterlimit="10"/>
<path d="M101.206 228.247C101.206 228.247 101.875 226.377 105.402 226.72C105.402 226.72 106.537 225.082 108.109 224.796C108.334 224.755 108.567 224.742 108.808 224.765" stroke="#000072" stroke-miterlimit="10"/>
<path d="M109.199 225.07C109.199 225.07 110.084 223.172 112.914 222.973" stroke="#000072" stroke-miterlimit="10"/>
<path d="M105.72 209.589C105.722 210.762 114.182 225.54 114.182 225.54L134.984 216.43L134.038 215.476L125.294 208.422L118.568 201.145C111.416 203.13 97.8463 190.122 97.8463 190.122L95.3632 197.199L97.7162 199.426L102.149 203.58L105.72 209.589Z" fill="#000072"/>
<path d="M217.652 142.478L220.838 177.461" stroke="#000072" stroke-miterlimit="10"/>
<path d="M221.988 145.019C221.988 145.019 228.709 165.29 223.621 176.799" stroke="#000072" stroke-miterlimit="10"/>
<path d="M213.646 144.01C213.646 144.01 214.069 163.741 217.006 179.359" stroke="#000072" stroke-miterlimit="10"/>
<path d="M208.562 147.983C208.562 147.983 207.702 159.677 214.602 182.518" stroke="#000072" stroke-miterlimit="10"/>
<path d="M225.935 149.424C225.935 149.424 224.203 146.964 223.259 149.545C223.259 149.545 220.418 145.036 218.292 149.519C218.292 149.519 215.521 145.83 213.894 150.311C213.894 150.311 209.828 147.406 208.63 152.616C208.63 152.616 207.591 151.885 206.752 153.812" stroke="#000072" stroke-miterlimit="10"/>
<path d="M227.309 152.078C227.309 152.078 225.504 149.71 223.991 152.716C223.991 152.716 221.157 150 218.668 153.629C218.668 153.629 216.393 150.618 213.796 154.365C213.796 154.365 211.624 152.266 208.879 155.636C208.879 155.636 207.341 154.38 206.629 156.791" stroke="#000072" stroke-miterlimit="10"/>
<path d="M228.704 155.255C228.704 155.255 226.099 152.996 224.592 155.858C224.592 155.858 221.073 153.713 219.027 157.553C219.027 157.553 216.524 155.055 214.418 158.431C214.418 158.431 211.423 155.78 209.259 159.528C209.259 159.528 207.906 158.032 206.221 160.501" stroke="#000072" stroke-miterlimit="10"/>
<path d="M229.271 158.076C229.271 158.076 227.236 155.605 225.1 159.329C225.1 159.329 221.36 156.651 219.317 160.741C219.317 160.741 216.311 157.66 214.683 161.966C214.683 161.966 212.439 159.371 209.928 163.189C209.928 163.189 208.385 161.065 207.77 163.737C207.154 166.408 207.357 163.873 207.357 163.873" stroke="#000072" stroke-miterlimit="10"/>
<path d="M229.646 161.249C229.646 161.249 227.123 158.601 225.387 162.308C225.387 162.308 222.496 160.509 219.586 163.72C219.586 163.72 216.234 162.026 214.857 165.79C214.857 165.79 211.947 163.85 210.66 167.091C210.66 167.091 207.838 163.053 207.577 168.264" stroke="#000072" stroke-miterlimit="10"/>
<path d="M228.872 164.19C228.872 164.19 227.543 161.343 225.514 164.989C225.514 164.989 222.274 163.045 219.908 167.244C219.908 167.244 216.728 165.175 215.492 169.374C215.492 169.374 212.502 167.329 211.515 171.009C211.515 171.009 209.391 166.347 208.059 171.314" stroke="#000072" stroke-miterlimit="10"/>
<path d="M228.506 167.254C228.506 167.254 227.366 165.883 225.467 168.159C225.467 168.159 221.953 167.316 220.198 170.406C220.198 170.406 217.757 168.93 215.839 172.05C215.839 172.05 212.699 171.049 211.978 173.643C211.978 173.643 210.552 170.015 208.446 174.202" stroke="#000072" stroke-miterlimit="10"/>
<path d="M227.59 169.925C227.59 169.925 226.441 168.316 225.199 170.972C225.199 170.972 222.227 170.422 220.473 173.427C220.473 173.427 217.228 172.917 216.307 175.252C216.307 175.252 213.512 173.627 212.71 176.827C212.71 176.827 210.76 173.916 210.114 177.302" stroke="#000072" stroke-miterlimit="10"/>
<path d="M226.444 171.515C226.444 171.515 225.269 171.109 224.92 172.595C224.92 172.595 221.135 173.069 220.672 175.649C220.672 175.649 218.54 174.697 216.655 177.408C216.655 177.408 214.373 175.623 213.508 178.786C213.508 178.786 211.107 176.136 210.518 180.096" stroke="#000072" stroke-miterlimit="10"/>
<path d="M193.282 168.125L197.12 158.696L198.438 147.394L198.214 145.111L204.789 148.112L206.209 150.412L205.016 154.2L205.185 158.139L206.383 162.387L207.325 164.538L207.908 165.994C207.908 165.994 210.38 177.852 213.424 181.612L193.285 191.039L192.066 190.063L192.537 182.088L192.401 171.843L193.282 168.125Z" fill="#000072"/>
<path d="M171.084 127.608C171.084 127.608 168.761 166.649 170.832 176.357" stroke="#000072" stroke-miterlimit="10"/>
<path d="M166.957 132.334C166.957 132.334 165.116 171.48 167.717 173.584" stroke="#000072" stroke-miterlimit="10"/>
<path d="M181.397 123.916C181.397 123.916 183.862 162.501 181.635 172.744" stroke="#000072" stroke-miterlimit="10"/>
<path d="M162.437 140.088C162.437 140.088 164.399 134.539 166.748 137.425C166.748 137.425 167.613 132.665 170.732 134.3C170.732 134.3 173.825 128.296 176.505 132.324C176.505 132.324 179.351 126.941 181.823 131.598C181.823 131.598 183.21 130.451 184.944 134.513C184.944 134.513 187.744 137.032 187.866 138.434" stroke="#000072" stroke-miterlimit="10"/>
<path d="M166.898 133.744C166.898 133.744 168.632 129.851 170.922 130.597C170.922 130.597 173.066 124.926 176.537 127.343C176.537 127.343 180.077 124.977 181.661 128.409C181.661 128.409 184.078 129.696 184.292 130.516C184.292 130.516 187.796 143.359 187.532 152.019C187.532 152.019 189.861 169.618 185.813 172.881" stroke="#000072" stroke-miterlimit="10"/>
<path d="M162.944 142.754C162.944 142.754 163.978 138.838 166.619 141.144C166.619 141.144 168.561 136.372 170.139 139.603C170.139 139.603 174.339 134.659 176.475 137.619C176.475 137.619 179.176 133.056 182.096 137.556C182.096 137.556 185.261 134.465 186.219 139.925C186.219 139.925 188.079 138.449 189.041 141.725" stroke="#000072" stroke-miterlimit="10"/>
<path d="M162.456 147.297C162.456 147.297 164.425 142.669 166.476 146.203C166.476 146.203 168.325 141.592 170.268 145.545C170.268 145.545 174.753 140.001 176.438 144.209C176.438 144.209 179.919 141.132 182.357 144.72C182.357 144.72 185.341 142.009 187.149 145.146C187.149 145.146 189.659 143.853 190.339 146.063" stroke="#000072" stroke-miterlimit="10"/>
<path d="M162.436 152.101C162.436 152.101 163.113 146.618 166.578 150.257C166.578 150.257 167.835 147.44 169.963 149.719C169.963 149.719 174.295 145.783 176.407 149.394C176.407 149.394 178.891 145.708 182.113 148.4C182.113 148.4 185.81 145.989 187.43 148.109C187.43 148.109 188.998 146.741 190.534 148.474" stroke="#000072" stroke-miterlimit="10"/>
<path d="M162.525 155.067C162.525 155.067 164.363 152.759 166.33 155.312C166.33 155.312 167.849 152.043 169.991 154.228C169.991 154.228 173.359 150.889 176.095 153.599C176.095 153.599 179.751 149.996 182.533 152.464C182.533 152.464 185.161 150.361 187.679 151.688C187.679 151.688 189.326 150.074 190.487 151.991" stroke="#000072" stroke-miterlimit="10"/>
<path d="M162.287 159.182C162.287 159.182 164.513 155.246 166.333 159.416C166.333 159.416 168.312 156.1 169.837 158.49C169.837 158.49 173.745 155.217 176.362 158.178C176.362 158.178 178.892 153.8 182.567 157.181C182.567 157.181 185.498 153.426 187.866 156.462" stroke="#000072" stroke-miterlimit="10"/>
<path d="M162.809 163.709C162.809 163.709 164.149 159.801 166.373 162.552C166.373 162.552 167.85 159.506 169.971 161.983C169.971 161.983 173.591 159.023 176.34 161.509C176.34 161.509 179.34 158.285 182.537 160.679C182.537 160.679 184.836 157.219 187.862 159.629" stroke="#000072" stroke-miterlimit="10"/>
<path d="M162.813 166.841C162.813 166.841 164.72 164.054 166.481 165.826C166.481 165.826 168.078 163.217 170.006 165.211C170.006 165.211 174.106 162.3 176.037 164.807C176.037 164.807 179.633 161.817 182.459 163.92C182.459 163.92 185.097 161.432 187.878 162.856C187.878 162.856 188.417 162.092 189.307 164.128" stroke="#000072" stroke-miterlimit="10"/>
<path d="M162.898 169.758C162.898 169.758 165.067 167.079 166.451 168.69C166.451 168.69 168.927 166.155 170.082 168.131C170.082 168.131 174.675 164.73 176.308 167.635C176.308 167.635 180.229 164.29 182.299 167.199C182.299 167.199 185.504 163.857 187.949 167.084C187.949 167.084 189.157 165.684 190.573 167.711" stroke="#000072" stroke-miterlimit="10"/>
<path d="M99.4437 156.214C99.4437 156.214 124.52 173.943 134.735 188.029" stroke="#000072" stroke-miterlimit="10"/>
<path d="M109.814 157.216C109.814 157.216 129.45 172.522 138.867 184.218" stroke="#000072" stroke-miterlimit="10"/>
<path d="M94.132 163.097C94.132 163.097 122.631 193.745 128.01 194.753" stroke="#000072" stroke-miterlimit="10"/>
<path d="M96.5839 170.073C96.5839 170.073 120.939 197.84 124.713 198.153" stroke="#000072" stroke-miterlimit="10"/>
<path d="M95.6816 164.156C95.6816 164.156 94.306 160.247 98.3227 161.101C98.3227 161.101 98.353 157.856 102.852 158.705C102.852 158.705 103.135 156.851 106.578 156.752" stroke="#000072" stroke-miterlimit="10"/>
<path d="M98.2012 171.898C98.2012 171.898 97.3085 169.115 99.9216 169.212C99.9216 169.212 98.9728 165.228 103.815 166.182C103.815 166.182 102.803 161.998 107.941 162.58C107.941 162.58 109.026 158.05 113.481 160.153C113.481 160.153 114.76 157.169 117.236 158.509" stroke="#000072" stroke-miterlimit="10"/>
<path d="M96.1133 169.002C96.1133 169.002 96.3546 166.964 97.7514 167.043C97.7514 167.043 97.4397 162.978 100.788 163.383C100.788 163.383 101.356 160.089 105.125 160.414C105.125 160.414 107.648 157.555 109.99 157.617" stroke="#000072" stroke-miterlimit="10"/>
<path d="M99.375 177.404C99.375 177.404 98.9557 175.452 101.483 175.574C101.483 175.574 100.582 172.739 103.574 173.098C103.574 173.098 102.555 169.11 107.796 169.56C107.796 169.56 106.323 165.032 112.031 165.842C112.031 165.842 112.549 161.648 116.593 162.738C116.593 162.738 116.096 160.696 119.095 161.304" stroke="#000072" stroke-miterlimit="10"/>
<path d="M101.561 181.438C101.561 181.438 101.208 178.057 104.41 178.79C104.41 178.79 103.524 175.408 106.926 176.412C106.926 176.412 107.493 172.698 110.815 172.949C110.815 172.949 111.513 167.942 115.648 168.825C115.648 168.825 116.601 164.787 119.852 165.501C119.852 165.501 119.432 164.303 122.021 163.866" stroke="#000072" stroke-miterlimit="10"/>
<path d="M103.547 184.072C103.547 184.072 102.862 180.738 106.795 181.384C106.795 181.384 107.304 178.675 109.772 179.268C109.772 179.268 109.821 175.042 114.003 175.629C114.003 175.629 114.807 171.448 119.244 171.915C119.244 171.915 119.692 168.522 123.491 168.69C123.491 168.69 122.535 167.23 125.349 167.194" stroke="#000072" stroke-miterlimit="10"/>
<path d="M106.055 186.525C106.055 186.525 105.596 183.537 108.656 183.797C108.656 183.797 108.903 180.351 112.065 181.483C112.065 181.483 111.492 177.49 116.744 178.091C116.744 178.091 117.381 174.108 121.726 174.016C121.726 174.016 121.9 170.437 125.982 170.792C125.982 170.792 126.028 169.034 128.202 169.471" stroke="#000072" stroke-miterlimit="10"/>
<path d="M107.412 189.098C107.412 189.098 106.915 185.231 109.992 184.801C109.992 184.801 111.869 182.385 113.646 183.066C113.646 183.066 116.011 178.833 118.666 179.948C118.666 179.948 121.046 175.429 124.077 176.316C124.077 176.316 125.648 173.106 128.739 173.509C128.739 173.509 129.426 171.431 131.561 171.804" stroke="#000072" stroke-miterlimit="10"/>
<path d="M134.924 175.21C134.924 175.21 130.889 172.93 131.697 176.383C131.697 176.383 126.196 175.659 127.436 179.606C127.436 179.606 121.746 178.24 122.096 183.127C122.096 183.127 116.666 182.617 117.05 186.515C117.05 186.515 112.976 184.796 114.187 188.731C114.187 188.731 112.487 188.808 112.869 190.373" stroke="#000072" stroke-miterlimit="10"/>
<path d="M137.349 177.623C137.349 177.623 133.844 176.031 134.521 179.28C134.521 179.28 130.052 178.499 129.948 182.247C129.948 182.247 125.38 181.979 125.476 186.146C125.476 186.146 120.497 185.649 121.134 189.986C121.134 189.986 117.9 190.067 118.186 193.274C118.186 193.274 116.61 193.515 116.814 195.877" stroke="#000072" stroke-miterlimit="10"/>
<path d="M138.888 179.63C138.888 179.63 135.691 177.168 136.628 181.567C136.628 181.567 133.816 181.149 132.478 185.123C132.478 185.123 128.674 185.429 127.826 188.43C127.826 188.43 124.891 188.85 123.841 191.618C123.783 191.77 123.731 191.929 123.686 192.096" stroke="#000072" stroke-miterlimit="10"/>
<path d="M123.726 191.931C123.726 191.931 121.188 192.777 120.926 195.627C120.926 195.627 119.198 196.475 119.302 198.924C119.405 201.374 118.789 198.791 118.789 198.791" stroke="#000072" stroke-miterlimit="10"/>
<path fill-rule="evenodd" clip-rule="evenodd" d="M98.5489 55.1598C126.581 42.8829 161.038 62.8757 171.803 87.4557C182.568 112.036 147.393 139.28 137.534 144.175C127.675 149.07 81.0042 155.658 70.239 131.077C59.4738 106.497 70.5168 67.4367 98.5489 55.1598Z" fill="#FF850B"/>
<path d="M99.0722 56.3549C71.1167 68.5982 61.0883 106.96 71.4236 130.558C74.1111 136.695 79.4026 141.255 87.1515 144.112C104.412 150.476 129.066 146.475 136.392 143.267C136.593 143.179 136.78 143.092 136.954 143.005C142.15 140.425 153.171 132.314 161.404 122.36C168.644 113.606 176.119 100.536 170.618 87.9743C159.92 63.5473 126.337 44.4141 99.0722 56.3549ZM137.468 145.644C129.61 149.085 104.445 153.258 86.2743 146.558C77.833 143.446 72.039 138.412 69.0539 131.596C63.6655 119.293 63.5032 103.022 68.6198 88.073C74.0521 72.2017 84.7699 59.7695 98.0252 53.9642C111.363 48.1227 127.054 48.957 142.207 56.3133C156.019 63.0184 167.526 74.4661 172.987 86.9365C177.765 97.846 174.45 110.674 163.4 124.034C154.926 134.279 143.512 142.663 138.113 145.344C137.914 145.443 137.698 145.543 137.468 145.644Z" fill="#000072"/>
<g opacity="0.5">
<g opacity="0.5">
<path opacity="0.5" fill-rule="evenodd" clip-rule="evenodd" d="M98.5423 55.1628C115.771 47.6175 135.425 52.264 150.515 62.6707C150.809 63.0919 151.1 63.5163 151.382 63.9493C138.088 55.5502 122.062 53.1912 107.2 57.1704C108.242 57.1196 108.937 57.2971 109.127 57.7312C109.659 58.9444 106.04 61.7016 101.044 63.8895C96.0486 66.0773 91.5679 66.8675 91.0366 65.6543C90.8465 65.2202 91.1863 64.5894 91.9311 63.8575C78.9282 72.0824 69.7957 85.4605 66.9531 100.926L66.8875 100.655C69.6883 81.7329 80.6565 62.9961 98.5423 55.1628Z" fill="white"/>
</g>
</g>
<path fill-rule="evenodd" clip-rule="evenodd" d="M173.777 95.593C175.167 117.735 146.311 139.817 137.532 144.176C128.843 148.491 91.5658 154.115 75.4705 138.564C71.5441 127.974 75.5087 122.873 87.3377 123.708C92.2019 124.051 97.1738 124.453 99.6402 121.409C113.717 104.027 125.607 100.935 141.408 103.116C148.797 104.137 152.149 96.3192 155.004 93.133C164.097 82.9834 170.894 84.3201 173.777 95.593Z" fill="white"/>
<g opacity="0.300003">
<g opacity="0.300003">
<path opacity="0.300003" fill-rule="evenodd" clip-rule="evenodd" d="M169.707 83.256C170.48 84.6368 171.182 86.0373 171.803 87.4539C172.199 88.3595 172.526 89.2682 172.802 90.1799L172.699 89.9163C178.499 106.926 151.244 133.791 134.074 142.516C119.741 149.799 83.3824 146.691 71.9559 134.038C72.0996 134.341 72.2496 134.64 72.3975 134.941C71.5744 133.746 70.8467 132.463 70.2391 131.076C69.7554 129.971 69.3176 128.837 68.9209 127.677L68.8927 127.404C87.6621 139.027 110.839 140.708 130.94 131.904C151.04 123.101 165.52 104.929 169.707 83.256Z" fill="#000072"/>
</g>
</g>
<path fill-rule="evenodd" clip-rule="evenodd" d="M98.7506 104.973C96.8744 104.954 94.7521 104.476 92.3873 103.538C89.6018 104.913 88.6695 108.972 90.316 112.732C91.9989 116.574 95.7379 118.649 98.6671 117.367C101.597 116.083 102.607 111.928 100.924 108.086C100.381 106.847 99.625 105.791 98.7506 104.973Z" fill="#000072"/>
<path d="M140.397 78.9256C139.606 82.3275 138.594 85.1341 137.359 87.3449C135.542 90.5973 132.757 92.2473 131.437 90.1197C132.825 89.31 134.049 87.9563 135.108 86.0603C137.718 81.3861 138.105 78.9434 140.397 78.9256Z" fill="#000072"/>
<path fill-rule="evenodd" clip-rule="evenodd" d="M134.346 89.3848C135.605 87.9932 136.692 86.1087 137.607 83.7343C140.506 82.6196 144.121 84.6873 145.768 88.4469C147.451 92.2895 146.441 96.4446 143.511 97.7277C140.582 99.0108 136.843 96.9355 135.16 93.0929C134.617 91.8538 134.355 90.5824 134.346 89.3848Z" fill="#000072"/>
<path fill-rule="evenodd" clip-rule="evenodd" d="M137.498 89.955C136.637 90.3318 136.269 91.3866 136.673 92.3107C137.078 93.2349 138.103 93.6792 138.964 93.3023C139.824 92.9257 140.192 91.871 139.787 90.9468C139.383 90.0227 138.358 89.5783 137.498 89.955Z" fill="white"/>
<path fill-rule="evenodd" clip-rule="evenodd" d="M117.89 102.11C121.683 100.449 125.664 101.171 126.781 103.722C127.899 106.273 125.73 109.688 121.936 111.349C118.143 113.011 114.163 112.289 113.045 109.738C111.928 107.186 114.097 103.771 117.89 102.11Z" fill="#000072"/>
<path d="M130.978 114.137C128.561 115.196 125.825 115.313 123.321 114.478C122.123 117.197 119.736 119.263 116.83 120.017C113.454 120.893 109.824 119.883 107.356 117.382C106.85 116.87 106.85 116.045 107.356 115.539C107.862 115.034 108.682 115.04 109.188 115.552C111.006 117.394 113.681 118.138 116.168 117.493C118.656 116.847 120.624 114.9 121.306 112.41C121.408 112.038 121.669 111.732 122.018 111.574C122.373 111.419 122.77 111.423 123.116 111.593C125.471 112.748 128.242 112.696 130.538 111.45C132.831 110.205 134.391 107.906 134.711 105.299C134.798 104.585 135.446 104.081 136.155 104.175C136.865 104.268 137.369 104.922 137.282 105.635C136.86 109.072 134.803 112.104 131.779 113.745C131.517 113.888 131.249 114.018 130.978 114.137Z" fill="#000072"/>
<path fill-rule="evenodd" clip-rule="evenodd" d="M122.556 112.761C126.063 114.048 128.931 113.993 131.16 112.595C138.586 127.949 122.621 134.183 116.5 118.753C119.586 117.847 121.604 115.851 122.556 112.761Z" fill="#000072"/>
<path d="M118.243 119.513C120.103 123.439 122.871 125.954 125.809 126.325C127.751 126.57 129.495 125.822 130.595 124.27C132.238 121.954 132.207 118.393 130.543 114.369C128.499 115.187 126.088 115.194 123.345 114.389C122.325 116.757 120.633 118.466 118.297 119.489C118.279 119.497 118.261 119.505 118.243 119.513ZM129.595 128.343C128.351 128.888 126.949 129.094 125.503 128.911C121.248 128.373 117.53 124.844 115.302 119.229L114.775 117.901L116.134 117.502C118.806 116.717 120.5 115.039 121.323 112.369L121.723 111.07L122.997 111.538C126.139 112.69 128.586 112.674 130.474 111.488L131.695 110.722L132.328 112.031C134.941 117.433 135.079 122.449 132.708 125.793C131.893 126.941 130.82 127.807 129.595 128.343Z" fill="#000072"/>
<path fill-rule="evenodd" clip-rule="evenodd" d="M126.468 121.338C124.358 122.262 122.823 124.149 122.338 126.412C126.985 129.26 132.07 127.113 132.956 121.721C130.971 120.564 128.562 120.421 126.468 121.338Z" fill="#FF0066"/>
<path d="M123.885 125.767C125.518 126.507 127.19 126.565 128.618 125.923C129.993 125.294 130.982 124.074 131.465 122.439C130.028 121.886 128.413 121.91 126.991 122.533C125.564 123.158 124.451 124.331 123.885 125.767ZM129.591 128.347C127.151 129.416 124.272 129.118 121.67 127.523L120.878 127.037L121.073 126.129C121.643 123.466 123.464 121.229 125.944 120.142C128.405 119.065 131.266 119.233 133.6 120.593L134.38 121.048L134.234 121.94C133.751 124.883 132.099 127.2 129.703 128.297C129.666 128.314 129.628 128.331 129.591 128.347Z" fill="#000072"/>
<path fill-rule="evenodd" clip-rule="evenodd" d="M155.081 64.9691C141.916 55.616 129.032 51.0228 116.429 51.191C124.375 12.5558 137.259 17.1486 155.081 64.9691Z" fill="#FF850B"/>
<path d="M118.025 49.8951C129.246 50.1053 140.79 54.0325 152.411 61.5898C141.088 32.2735 133.87 26.3132 129.761 26.6088C126.625 26.8353 122.082 31.106 118.025 49.8951ZM157.761 68.4684L154.335 66.0343C141.461 56.8876 128.715 52.333 116.451 52.4964L114.829 52.5181L115.157 50.9214C118.792 33.2486 123.5 24.4445 129.559 24.0094C137.288 23.4536 145.782 36.3265 156.29 64.5211L157.761 68.4684Z" fill="#000072"/>
<path fill-rule="evenodd" clip-rule="evenodd" d="M126.575 79.2942C128.012 77.7998 129.896 77.2881 130.783 78.1518C131.67 79.0155 131.225 80.9276 129.789 82.4223C128.352 83.9167 126.467 84.4279 125.58 83.5643C124.693 82.7006 125.139 80.7884 126.575 79.2942Z" fill="white"/>
<path fill-rule="evenodd" clip-rule="evenodd" d="M95.9736 92.6112C93.9007 92.6534 92.2471 93.6918 92.2802 94.9293C92.3134 96.1671 94.0206 97.1364 96.0932 97.0937C98.1655 97.0513 99.8193 96.0134 99.7862 94.7758C99.7531 93.5381 98.0459 92.5688 95.9736 92.6112Z" fill="white"/>
<path fill-rule="evenodd" clip-rule="evenodd" d="M95.6226 108.295C94.7622 108.672 94.3935 109.726 94.7982 110.651C95.203 111.575 96.2282 112.019 97.0886 111.642C97.9486 111.266 98.3172 110.211 97.9125 109.287C97.5077 108.362 96.4826 107.918 95.6226 108.295Z" fill="white"/>
<path fill-rule="evenodd" clip-rule="evenodd" d="M66.4345 104.513C68.4868 88.4951 73.848 75.9119 82.5178 66.7628C48.7347 46.4033 43.3736 58.9871 66.4345 104.513Z" fill="#FF850B"/>
<path d="M56.5865 59.127C56.1102 59.3356 55.7241 59.5974 55.4112 59.8913C52.4075 62.711 51.8931 72.0576 65.7608 100.259C68.0868 86.5942 73.0283 75.4471 80.4833 67.0568C66.1849 58.6299 59.595 57.8094 56.5865 59.127ZM67.1892 108.856L65.2854 105.098C51.689 78.2557 47.9877 63.284 53.6372 57.9803C58.0636 53.8258 67.7279 56.3317 83.1823 65.6451L84.5785 66.4865L83.4623 67.6643C75.0257 76.5672 69.7302 89.0235 67.7234 104.687L67.1892 108.856Z" fill="#000072"/>
<g opacity="0.649994">
<g opacity="0.649994">
<path opacity="0.649994" fill-rule="evenodd" clip-rule="evenodd" d="M80.439 69.1074C81.1118 68.3009 81.8082 67.5183 82.5268 66.7591C61.5888 54.1407 51.5737 54.1825 52.4702 66.8718C53.2545 57.3292 62.5765 58.0742 80.4372 69.107L80.439 69.1074Z" fill="white"/>
</g>
</g>
<path fill-rule="evenodd" clip-rule="evenodd" d="M68.3673 93.4179C70.0492 87.1654 72.498 81.3183 75.7146 75.8777C56.1202 59.7977 53.6707 65.6445 68.3673 93.4179Z" fill="#000072"/>
<path d="M60.6416 68.4093C60.5898 68.432 60.5575 68.4545 60.5394 68.4694C60.4283 68.561 59.5077 69.5219 61.3341 75.003C62.5646 78.696 64.8112 83.7213 68.0226 89.9685C69.554 85.1317 71.5679 80.5111 74.0326 76.1829C63.8105 67.9232 61.1803 68.1734 60.6416 68.4093ZM68.7628 96.9374L67.2228 94.0265C56.0396 72.8926 56.7344 68.2267 58.8892 66.4495C61.4653 64.3223 66.7423 66.8422 76.5273 74.8721L77.3976 75.5863L76.8268 76.5514C73.686 81.8636 71.2597 87.6562 69.6154 93.7683L68.7628 96.9374Z" fill="#000072"/>
<g opacity="0.300003">
<g opacity="0.300003">
<path opacity="0.300003" fill-rule="evenodd" clip-rule="evenodd" d="M59.0765 68.4916C56.5032 73.0747 57.4569 82.0078 61.9376 95.2899C63.2916 98.1978 64.7896 101.272 66.4319 104.515C66.5461 103.229 66.6981 101.94 66.8912 100.653L66.9569 100.924C67.9578 94.855 69.4665 89.3127 71.4816 84.2972C70.2763 87.1687 69.2563 90.1385 68.421 93.2063C68.4046 93.2664 68.3881 93.3262 68.3721 93.3872C68.3705 93.3923 68.3692 93.3979 68.3677 93.4046C68.3661 93.4098 68.3651 93.4147 68.3634 93.4198C61.2425 79.9629 58.1472 71.6535 59.0765 68.4916ZM133.588 35.138C138.702 36.3549 144.621 43.1132 151.343 55.4133C152.562 58.3803 153.806 61.5666 155.076 64.9718C154.053 64.1837 153.003 63.4222 151.926 62.6909L152.081 62.923C146.942 59.5428 141.845 56.8931 136.793 54.9738C139.721 56.035 142.595 57.2994 145.416 58.7658C145.471 58.7941 145.526 58.8229 145.582 58.8521C145.587 58.8549 145.592 58.8577 145.597 58.8607C145.603 58.8634 145.607 58.8655 145.612 58.8683C140.551 44.5091 136.542 36.5992 133.588 35.138Z" fill="#000072"/>
</g>
</g>
<g opacity="0.649994">
<g opacity="0.649994">
<path opacity="0.649994" fill-rule="evenodd" clip-rule="evenodd" d="M119.576 51.2494C118.527 51.197 117.479 51.1781 116.434 51.1919C121.359 27.2467 128.181 19.9138 136.899 29.1776C129.354 23.283 123.58 30.6399 119.577 51.2483L119.576 51.2494Z" fill="white"/>
</g>
</g>
<path fill-rule="evenodd" clip-rule="evenodd" d="M145.612 58.8678C139.876 55.8634 133.919 53.6981 127.739 52.3727C129.208 27.0676 135.167 29.2324 145.612 58.8678Z" fill="#000072"/>
<path d="M129.1 51.3432C133.953 52.4671 138.715 54.1205 143.307 56.2749C140.893 49.6781 138.723 44.6194 136.843 41.2106C134.054 36.1514 132.723 36.1761 132.581 36.1957C132.318 36.2328 130.044 36.9658 129.1 51.3432ZM147.926 61.5453L145.019 60.0224C139.413 57.0863 133.511 54.941 127.476 53.6466L126.379 53.4117L126.445 52.2878C127.179 39.652 128.902 34.0664 132.215 33.6133C134.982 33.2348 138.883 35.8881 146.832 58.439L147.926 61.5453Z" fill="#000072"/>
<path d="M56.587 59.127C56.1108 59.3355 55.7247 59.5973 55.4117 59.8912C52.408 62.7109 51.8934 72.0579 65.7611 100.26C68.0874 86.5941 73.0287 75.4469 80.4839 67.0567C66.1854 58.6298 59.5955 57.8094 56.587 59.127ZM67.189 108.856L65.2853 105.098C51.6892 78.2558 47.9881 63.2837 53.6377 57.9803C58.0642 53.8257 67.7284 56.3316 83.1828 65.6451L84.579 66.4864L83.4628 67.6643C75.0262 76.5671 69.7307 89.0235 67.7233 104.687L67.189 108.856Z" fill="#000072"/>
<path d="M99.0722 56.3549C71.1167 68.5982 61.0883 106.96 71.4236 130.558C74.1111 136.695 79.4026 141.255 87.1515 144.112C104.412 150.476 129.066 146.475 136.392 143.267C136.593 143.179 136.78 143.092 136.954 143.005C142.15 140.425 153.171 132.314 161.404 122.36C168.644 113.606 176.119 100.536 170.618 87.9743C159.92 63.5473 126.337 44.4141 99.0722 56.3549ZM137.468 145.644C129.61 149.085 104.445 153.258 86.2743 146.558C77.833 143.446 72.039 138.412 69.0539 131.596C63.6655 119.293 63.5032 103.022 68.6198 88.073C74.0521 72.2017 84.7699 59.7695 98.0252 53.9642C111.363 48.1227 127.054 48.957 142.207 56.3133C156.019 63.0184 167.526 74.4661 172.987 86.9365C177.765 97.846 174.45 110.674 163.4 124.034C154.926 134.279 143.512 142.663 138.113 145.344C137.914 145.443 137.698 145.543 137.468 145.644Z" fill="#000072"/>
<g opacity="0.559998">
<g opacity="0.559998">
<path opacity="0.559998" fill-rule="evenodd" clip-rule="evenodd" d="M120.935 102.983C122.091 102.805 123.077 102.971 123.138 103.355C123.199 103.739 122.311 104.195 121.155 104.373C119.998 104.551 119.012 104.384 118.951 104C118.89 103.617 119.778 103.161 120.935 102.983Z" fill="white"/>
</g>
</g>
<path d="M87.8216 101.951C90.8582 103.677 93.6076 104.836 96.0698 105.428C99.6921 106.298 102.794 105.37 102.125 102.957C100.588 103.429 98.7636 103.41 96.6515 102.903C91.4467 101.651 89.389 100.279 87.8216 101.951Z" fill="#000072"/>
<path d="M118.025 49.8951C129.246 50.1053 140.79 54.0325 152.411 61.5898C141.088 32.2735 133.87 26.3132 129.761 26.6088C126.625 26.8353 122.082 31.106 118.025 49.8951ZM157.761 68.4684L154.335 66.0343C141.461 56.8876 128.715 52.333 116.451 52.4964L114.829 52.5181L115.157 50.9214C118.792 33.2486 123.5 24.4445 129.559 24.0094C137.288 23.4536 145.782 36.3265 156.29 64.5211L157.761 68.4684Z" fill="#000072"/>
</svg>
