<svg width="416" height="120" viewBox="0 0 416 120" fill="none" xmlns="http://www.w3.org/2000/svg">
<rect opacity="0.1" width="120" height="120" rx="20" fill="#FF9429"/>
<rect x="25" y="25" width="70" height="70" rx="20" fill="#FF9429"/>
<g opacity="0.6">
<path fill-rule="evenodd" clip-rule="evenodd" d="M66.4375 43C69.2944 43 71.7269 44.8266 72.6281 47.375H53.3125C50.4117 47.375 47.6297 48.5273 45.5785 50.5785C43.5273 52.6297 42.375 55.4117 42.375 58.3125V68.8781C41.0951 68.4253 39.9872 67.5868 39.2036 66.4781C38.4201 65.3694 37.9996 64.0451 38 62.6875V49.5625C38 47.822 38.6914 46.1528 39.9221 44.9221C41.1528 43.6914 42.822 43 44.5625 43H66.4375ZM75.1875 51.75H53.3125C51.572 51.75 49.9028 52.4414 48.6721 53.6721C47.4414 54.9028 46.75 56.572 46.75 58.3125V71.4375C46.75 73.178 47.4414 74.8472 48.6721 76.0779C49.9028 77.3086 51.572 78 53.3125 78H75.1875C76.928 78 78.5972 77.3086 79.8279 76.0779C81.0586 74.8472 81.75 73.178 81.75 71.4375V58.3125C81.75 56.572 81.0586 54.9028 79.8279 53.6721C78.5972 52.4414 76.928 51.75 75.1875 51.75ZM68.625 64.875C68.625 66.0353 68.1641 67.1481 67.3436 67.9686C66.5231 68.7891 65.4103 69.25 64.25 69.25C63.0897 69.25 61.9769 68.7891 61.1564 67.9686C60.3359 67.1481 59.875 66.0353 59.875 64.875C59.875 63.7147 60.3359 62.6019 61.1564 61.7814C61.9769 60.9609 63.0897 60.5 64.25 60.5C65.4103 60.5 66.5231 60.9609 67.3436 61.7814C68.1641 62.6019 68.625 63.7147 68.625 64.875Z" fill="white"/>
</g>
<rect opacity="0.1" width="120" height="120" rx="20" fill="#FF9429"/>
<rect x="25" y="25" width="70" height="70" rx="20" fill="#FF9429"/>
<path fill-rule="evenodd" clip-rule="evenodd" d="M66.4375 43C69.2944 43 71.7269 44.8266 72.6281 47.375H53.3125C50.4117 47.375 47.6297 48.5273 45.5785 50.5785C43.5273 52.6297 42.375 55.4117 42.375 58.3125V68.8781C41.0951 68.4253 39.9872 67.5868 39.2036 66.4781C38.4201 65.3694 37.9996 64.0451 38 62.6875V49.5625C38 47.822 38.6914 46.1528 39.9221 44.9221C41.1528 43.6914 42.822 43 44.5625 43H66.4375ZM75.1875 51.75H53.3125C51.572 51.75 49.9028 52.4414 48.6721 53.6721C47.4414 54.9028 46.75 56.572 46.75 58.3125V71.4375C46.75 73.178 47.4414 74.8472 48.6721 76.0779C49.9028 77.3086 51.572 78 53.3125 78H75.1875C76.928 78 78.5972 77.3086 79.8279 76.0779C81.0586 74.8472 81.75 73.178 81.75 71.4375V58.3125C81.75 56.572 81.0586 54.9028 79.8279 53.6721C78.5972 52.4414 76.928 51.75 75.1875 51.75ZM68.625 64.875C68.625 66.0353 68.1641 67.1481 67.3436 67.9686C66.5231 68.7891 65.4103 69.25 64.25 69.25C63.0897 69.25 61.9769 68.7891 61.1564 67.9686C60.3359 67.1481 59.875 66.0353 59.875 64.875C59.875 63.7147 60.3359 62.6019 61.1564 61.7814C61.9769 60.9609 63.0897 60.5 64.25 60.5C65.4103 60.5 66.5231 60.9609 67.3436 61.7814C68.1641 62.6019 68.625 63.7147 68.625 64.875Z" fill="white"/>
</svg>
