<svg width="416" height="120" viewBox="0 0 416 120" fill="none" xmlns="http://www.w3.org/2000/svg">
<rect opacity="0.1" width="120" height="120" rx="20" fill="#0096F2"/>
<rect x="25" y="25" width="70" height="70" rx="20" fill="#0096F2"/>
<path d="M60.5 43C50.8506 43 43 50.8514 43 60.5C43 70.1637 50.8363 78 60.5 78C70.1494 78 78 70.1494 78 60.5C78 50.8355 70.1645 43 60.5 43ZM60.5 69.3341C58.4025 69.3341 56.3909 68.5009 54.9077 67.0177C53.4246 65.5346 52.5913 63.523 52.5913 61.4255C52.5913 59.328 53.4246 57.3164 54.9077 55.8332C56.3909 54.3501 58.4025 53.5168 60.5 53.5168H60.8542L59.6671 52.3305C59.4462 52.1096 59.3221 51.81 59.3221 51.4976C59.3221 51.1852 59.4462 50.8856 59.6671 50.6647C59.888 50.4438 60.1876 50.3197 60.5 50.3197C60.8124 50.3197 61.112 50.4438 61.3329 50.6647L64.6983 54.03C64.8077 54.1394 64.8945 54.2693 64.9537 54.4122C65.0129 54.5551 65.0434 54.7083 65.0434 54.863C65.0434 55.0177 65.0129 55.1708 64.9537 55.3138C64.8945 55.4567 64.8077 55.5865 64.6983 55.6959L61.3329 59.0613C61.112 59.2822 60.8124 59.4063 60.5 59.4063C60.1876 59.4063 59.888 59.2822 59.6671 59.0613C59.4462 58.8404 59.3221 58.5408 59.3221 58.2284C59.3221 57.916 59.4462 57.6163 59.6671 57.3954L61.1815 55.881C60.9813 55.8726 60.7524 55.8726 60.5 55.8726C59.4017 55.8726 58.3282 56.1983 57.415 56.8084C56.5018 57.4186 55.7901 58.2858 55.3698 59.3005C54.9495 60.3151 54.8396 61.4316 55.0538 62.5088C55.2681 63.5859 55.7969 64.5754 56.5735 65.352C57.3501 66.1285 58.3395 66.6574 59.4167 66.8717C60.4938 67.0859 61.6103 66.976 62.625 66.5557C63.6397 66.1354 64.5069 65.4237 65.1171 64.5105C65.7272 63.5973 66.0529 62.5237 66.0529 61.4255C66.0529 61.1131 66.177 60.8135 66.3979 60.5926C66.6188 60.3717 66.9184 60.2476 67.2308 60.2476C67.5432 60.2476 67.8428 60.3717 68.0637 60.5926C68.2846 60.8135 68.4087 61.1131 68.4087 61.4255C68.4062 63.5222 67.5722 65.5324 66.0896 67.015C64.6069 68.4977 62.5968 69.3317 60.5 69.3341Z" fill="white"/>
</svg>
