<svg width="416" height="120" viewBox="0 0 416 120" fill="none" xmlns="http://www.w3.org/2000/svg">
<rect opacity="0.1" width="120" height="120" rx="20" fill="#EA0B1E"/>
<rect x="25" y="25" width="70" height="70" rx="10" fill="#E11D2E"/>
<path d="M76.0283 43H66.1691C65.0801 43 64.1973 43.8828 64.1973 44.9718V54.831C64.1973 55.92 65.0801 56.8028 66.1691 56.8028H76.0283C77.1173 56.8028 78.0001 55.92 78.0001 54.831V44.9718C78.0001 43.8828 77.1173 43 76.0283 43Z" fill="white"/>
<path d="M54.831 64.1953H44.9718C43.8828 64.1953 43 65.0781 43 66.1671V76.0263C43 77.1153 43.8828 77.9982 44.9718 77.9982H54.831C55.92 77.9982 56.8028 77.1153 56.8028 76.0263V66.1671C56.8028 65.0781 55.92 64.1953 54.831 64.1953Z" fill="white"/>
<path d="M49.9014 56.8028C50.8077 56.8028 51.7052 56.6243 52.5425 56.2775C53.3798 55.9307 54.1406 55.4223 54.7815 54.7815C55.4223 54.1406 55.9307 53.3798 56.2775 52.5425C56.6243 51.7052 56.8028 50.8077 56.8028 49.9014C56.8028 48.9951 56.6243 48.0977 56.2775 47.2604C55.9307 46.423 55.4223 45.6622 54.7815 45.0214C54.1406 44.3805 53.3798 43.8722 52.5425 43.5253C51.7052 43.1785 50.8077 43 49.9014 43C48.0711 43 46.3156 43.7271 45.0214 45.0214C43.7271 46.3156 43 48.0711 43 49.9014C43 51.7318 43.7271 53.4872 45.0214 54.7815C46.3156 56.0757 48.0711 56.8028 49.9014 56.8028Z" fill="white"/>
<path d="M78.0001 76.0263L71.0987 64.1953L64.1973 76.0263C64.1973 77.1153 65.0801 77.9982 66.1691 77.9982H76.0283C77.1173 77.9982 78.0001 77.1153 78.0001 76.0263Z" fill="white"/>
</svg>
