<svg width="108" height="109" viewBox="0 0 108 109" fill="none" xmlns="http://www.w3.org/2000/svg">
<path d="M0 15.0078C0 6.72354 6.71573 0.0078125 15 0.0078125H93C101.284 0.0078125 108 6.72354 108 15.0078V93.0078C108 101.292 101.284 108.008 93 108.008H15C6.71573 108.008 0 101.292 0 93.0078V15.0078Z" fill="#E11D2E"/>
<path d="M83 41.1985C80.8303 42.077 78.4995 42.6706 76.0492 42.9389C78.5775 41.5565 80.469 39.3809 81.3708 36.818C78.9954 38.1072 76.3957 39.0147 73.6846 39.5009C71.8615 37.7223 69.4467 36.5433 66.8152 36.1472C64.1837 35.751 61.4826 36.1598 59.1314 37.3101C56.7802 38.4603 54.9104 40.2877 53.8122 42.5084C52.7141 44.7292 52.449 47.2191 53.0583 49.5916C48.2452 49.3708 43.5366 48.2277 39.2383 46.2365C34.94 44.2453 31.1479 41.4506 28.1081 38.0336C27.0687 39.6719 26.4711 41.5713 26.4711 43.5942C26.4699 45.4152 26.9607 47.2084 27.8999 48.8146C28.8391 50.4208 30.1977 51.7903 31.8551 52.8016C29.9329 52.7457 28.0532 52.2712 26.3724 51.4174V51.5599C26.3722 54.114 27.3391 56.5895 29.109 58.5664C30.8789 60.5432 33.3428 61.8997 36.0827 62.4056C34.2996 62.8465 32.4302 62.9115 30.6156 62.5955C31.3886 64.7932 32.8944 66.715 34.9222 68.0918C36.9499 69.4686 39.3981 70.2316 41.924 70.2739C37.6361 73.3496 32.3407 75.018 26.8895 75.0106C25.9238 75.0109 24.959 74.9593 24 74.8563C29.5333 78.1071 35.9745 79.8324 42.5528 79.8257C64.8214 79.8257 76.995 62.973 76.995 48.357C76.995 47.8821 76.982 47.4025 76.9586 46.9277C79.3266 45.3629 81.3706 43.4254 82.9948 41.2056L83 41.1985Z" fill="white"/>
</svg>
